<?xml version="1.0" encoding="UTF-8" standalone="no"?>
<!-- Created with Inkscape (http://www.inkscape.org/) -->

<svg
   width="234.47652mm"
   height="273.61838mm"
   viewBox="0 0 234.47652 273.61838"
   version="1.1"
   id="svg1"
   xml:space="preserve"
   sodipodi:docname="hand-holding-working.svg"
   inkscape:version="1.4 (86a8ad7, 2024-10-11)"
   inkscape:export-filename="jasonpaxtoncooper\public\hand-holding.svg"
   inkscape:export-xdpi="96"
   inkscape:export-ydpi="96"
   xmlns:inkscape="http://www.inkscape.org/namespaces/inkscape"
   xmlns:sodipodi="http://sodipodi.sourceforge.net/DTD/sodipodi-0.dtd"
   xmlns="http://www.w3.org/2000/svg"
   xmlns:svg="http://www.w3.org/2000/svg"><sodipodi:namedview
     id="namedview1"
     pagecolor="#ffffff"
     bordercolor="#000000"
     borderopacity="0.25"
     inkscape:showpageshadow="2"
     inkscape:pageopacity="0.0"
     inkscape:pagecheckerboard="0"
     inkscape:deskcolor="#d1d1d1"
     inkscape:document-units="mm"
     inkscape:zoom="0.78455196"
     inkscape:cx="544.25968"
     inkscape:cy="743.73659"
     inkscape:window-width="2865"
     inkscape:window-height="1977"
     inkscape:window-x="-32000"
     inkscape:window-y="-32000"
     inkscape:window-maximized="0"
     inkscape:current-layer="layer1"><inkscape:page
       x="0"
       y="0"
       width="234.47652"
       height="273.61838"
       id="page2"
       margin="0"
       bleed="0" /></sodipodi:namedview><defs
     id="defs1" /><g
     inkscape:label="Layer 1"
     inkscape:groupmode="layer"
     id="layer1"
     transform="translate(-33.578879,-88.301733)"><path
       style="opacity:1;fill:#ffe6d5;stroke:#ff0000;stroke-width:0"
       d="m 138.14706,141.38235 c 0,0 24.18763,14.94925 19.89706,9.05882 -6.77505,-9.30132 -6.73305,-16.40615 -8.89706,-25.23529 -1.37401,-5.60595 -1.38712,-11.60783 -0.4853,-17.30882 0.93,-5.87907 1.37287,-13.061373 5.9853,-16.823533 2.40507,-1.961712 9.4407,-4.389956 9.22059,-1.294117 -0.17114,2.407116 -0.59653,11.00692 0.97058,16.17647 0.63064,2.08032 1.47381,7.23019 2.75,10.67647 3.90241,10.53822 9.97832,19.39306 14.94197,29.47499 5.44294,11.05546 16.00435,27.36254 16.27863,33.93677 0.53514,12.82663 1.43397,30.16103 5.97435,45.81778 5.79139,19.97067 63.27222,91.28772 63.27222,91.28772 l -61.29788,44.77047 c 0,0 -65.94456,-105.88765 -74.11046,-107.62596 -16.63436,-3.54103 -37.598821,-12.15406 -51.764709,-25.07353 -5.309479,-4.84231 57.264709,-87.83824 57.264709,-87.83824 z"
       id="path1"
       sodipodi:nodetypes="cssssssssssccssc" /><path
       style="opacity:1;fill:#ffe6d5;stroke:#ff0000;stroke-width:0"
       d="m 61.794117,117.119 c 0,0 -12.159067,-3.93613 -18.306449,-3.18099 -2.448154,0.30073 -5.15887,1.12343 -6.767079,2.99361 -1.603979,1.86526 -2.549642,4.73671 -1.941176,7.12034 0.750262,2.93911 3.698799,5.01256 6.308822,6.55822 5.9605,3.52981 20.058822,5.43394 20.058822,5.43394 z"
       id="path2"
       sodipodi:nodetypes="csssscc" /><path
       style="opacity:1;fill:#ffe6d5;stroke:#ff0000;stroke-width:0"
       d="m 53.419457,160.63235 c 0,0 -9.654394,-2.22049 -13.873181,-0.32352 -2.319387,1.04291 -4.075918,3.42768 -4.928628,5.82353 -1.103086,3.09933 -1.365387,6.96479 0.182541,9.86764 1.1523,2.16093 3.683471,3.48485 6.02388,4.20588 4.361572,1.34371 13.690637,-0.16176 13.690637,-0.16176 z"
       id="path3"
       sodipodi:nodetypes="csssscc" /><path
       style="opacity:1;fill:#ffe6d5;stroke:#ff0000;stroke-width:0"
       d="m 52.572175,183.96239 c 0,0 -9.779851,-1.57873 -13.864301,0.59242 -2.245533,1.19365 -3.840909,3.68911 -4.533703,6.136 -0.896214,3.16535 -0.902934,7.03969 0.833128,9.8341 1.29235,2.0802 3.905349,3.23425 6.288226,3.79931 4.440717,1.05304 13.65014,-1.0646 13.65014,-1.0646 z"
       id="path3-8"
       sodipodi:nodetypes="csssscc" /><path
       style="opacity:1;fill:#ffe6d5;stroke:#ff0000;stroke-width:0"
       d="m 53.897392,206.70932 c 0,0 -9.779851,-1.57873 -13.864301,0.59242 -2.245533,1.19365 -3.840909,3.68911 -4.533703,6.136 -0.896214,3.16535 -0.902934,7.03969 0.833128,9.8341 1.29235,2.0802 3.905349,3.23425 6.288226,3.79931 4.440717,1.05304 13.65014,-1.0646 13.65014,-1.0646 z"
       id="path3-8-1"
       sodipodi:nodetypes="csssscc"
       inkscape:export-filename="jasonpaxtoncooper\public\path3-8-1.svg"
       inkscape:export-xdpi="96"
       inkscape:export-ydpi="96" /></g></svg>
