<?xml version="1.0" encoding="UTF-8" standalone="no"?>
<!-- Created with Inkscape (http://www.inkscape.org/) -->

<svg
   width="1920"
   height="1080"
   viewBox="0 0 1920 1080"
   version="1.1"
   id="svg1"
   xml:space="preserve"
   xmlns="http://www.w3.org/2000/svg"
   xmlns:svg="http://www.w3.org/2000/svg"><defs
     id="defs1" /><g
     id="layer2"
     style="display:inline"><path
       style="opacity:1;fill:#e3dedb;fill-opacity:1;stroke:#000000;stroke-width:0;stroke-dasharray:none"
       d="M 43.341632,0 123.66282,370.59084 815.00097,252.92761 1920,512.79226 V 1080 H 0 V 0 Z"
       id="path3" /><path
       style="opacity:1;fill:#483737;fill-opacity:1;stroke:#000000;stroke-width:0;stroke-dasharray:none"
       d="M 0,959.44578 814.76745,708.68833 1800,1080 H 0 Z"
       id="path32" /><path
       style="opacity:1;fill:#c8b7b7;fill-opacity:1;stroke:#000000;stroke-width:0;stroke-dasharray:none"
       d="m 485.56985,764.45638 -44.87203,194.17354 81.17759,-48.4074 42.69643,-172.68937 -50.03912,18.22077 z"
       id="path28" /><path
       style="opacity:1;fill:#b7c8be;fill-opacity:1;stroke:#000000;stroke-width:0;stroke-dasharray:none"
       d="m 0,509.12796 c 0,0 26.622727,2.28195 82.910778,61.6126 56.288052,59.33064 88.995972,105.73025 135.142032,170.1319 46.14606,64.40164 26.62273,83.41788 26.62273,83.41788 L 212.98182,790.31467 169.37125,753.8035 96.095367,713.23553 0,656.94748 Z"
       id="path26" /><path
       style="opacity:1;fill:#93ac9d;fill-opacity:1;stroke:#000000;stroke-width:0;stroke-dasharray:none"
       d="m 448.96157,1080 c 0,0 -111.32146,-140.59385 -173.28341,-220.40924 C 213.71621,779.77537 182.73524,757.19601 129.70001,729.89075 76.664783,702.58548 0,646.02642 0,657.42677 c 0,11.49068 0,44.23199 0,44.23199 L 105.02025,748.26929 306.65913,935.20534 425.33202,1080 Z"
       id="path25" /><path
       style="opacity:1;fill:#f9f9f9;fill-opacity:1;stroke:#000000;stroke-width:0;stroke-dasharray:none"
       d="M 1763.6838,420.47483 1920,454.4095 v -5.31505 l -153.5594,-32.97922 z"
       id="path21" /><path
       style="opacity:1;fill:#ececec;fill-opacity:1;stroke:#000000;stroke-width:0;stroke-dasharray:none"
       d="M 1747.5164,446.59658 1920,487.09743 V 454.382 l -160.2518,-34.69537 z"
       id="path20" /><path
       style="display:inline;fill:#f2f2f2;fill-opacity:1;stroke:#000000;stroke-width:0;stroke-dasharray:none"
       d="m 1605.0718,0 -8.4406,160.264 8.0282,-0.0935 L 1612.414,0 Z"
       id="path18-2" /><path
       style="opacity:1;fill:#f9f9f9;fill-opacity:1;stroke:#000000;stroke-width:0;stroke-dasharray:none"
       d="m 119.57474,354.10128 3.94752,16.82466 691.474,-118.00048 -39.22081,-12.75715 z"
       id="path4" /><path
       style="opacity:1;fill:#a05a2c;fill-opacity:1;stroke:#000000;stroke-width:0;stroke-dasharray:none"
       d="M 260,451.765 1540,1080 h -63.2853 L 260,468.52941 Z"
       id="path1" /><path
       style="opacity:1;fill:#deaa87;fill-opacity:1;stroke:#000000;stroke-width:0;stroke-dasharray:none"
       d="M 259.91639,451.7362 812.11214,336.93638 1920,639.93164 V 1080 h -382.1328 z"
       id="path2" /><path
       style="opacity:1;fill:#f2f2f2;fill-opacity:1;stroke:#000000;stroke-width:0;stroke-dasharray:none"
       d="M 97.5,0 164.25,327 460.5,278.25 428,0 h 42.5 L 501.11612,287.98483 119.5,354.5 43.375,0 Z"
       id="path5" /><path
       style="opacity:1;fill:#ececec;fill-opacity:1;stroke:#000000;stroke-width:0;stroke-dasharray:none"
       d="M 423.21536,0 454.25,274.75 460.5202,278.28661 428,0 Z"
       id="path6" /><path
       style="opacity:1;fill:#f9f9f9;fill-opacity:1;stroke:#000000;stroke-width:0;stroke-dasharray:none"
       d="M 164.20312,327.01562 460.46875,278.25 454.25781,274.75781 163.125,321.60937 Z"
       id="path7" /><path
       style="opacity:1;fill:#f2f2f2;fill-opacity:1;stroke:#000000;stroke-width:0;stroke-dasharray:none"
       d="M 470.51327,0 501.05144,287.90295 775.65625,240.25 768.77065,0 H 732.34742 L 739.5,233.19975 541.875,264.59512 516.70581,0 Z"
       id="path8" /><path
       style="opacity:1;fill:#ececec;fill-opacity:1;stroke:#000000;stroke-width:0;stroke-dasharray:none"
       d="m 728.23101,0 h 4.23091 l 7.13183,233.55866 -4.05273,-2.70438 z"
       id="path9" /><path
       style="opacity:1;fill:#f9f9f9;fill-opacity:1;stroke:#000000;stroke-width:0;stroke-dasharray:none"
       d="m 735.45067,230.77105 3.92969,2.61328 -197.51674,31.20776 -0.48081,-4.62978 z"
       id="path10" /><path
       style="opacity:1;fill:#ececec;fill-opacity:1;stroke:#000000;stroke-width:0;stroke-dasharray:none"
       d="m 768.71528,0 6.87643,240.13991 39.42018,12.80348 L 810.40196,0 Z"
       id="path11" /><path
       style="opacity:1;fill:#f2f2f2;fill-opacity:1;stroke:#000000;stroke-width:0;stroke-dasharray:none"
       d="m 809.7739,0 5.21824,252.93176 35.60291,-8.07173 L 848.07613,0 Z"
       id="path12" /><path
       style="opacity:1;fill:#f9f9f9;fill-opacity:1;stroke:#000000;stroke-width:0;stroke-dasharray:none"
       d="M 814.98696,252.92779 1920,513.63909 V 484.87377 L 850.58471,244.85496 Z"
       id="path13" /><path
       style="opacity:1;fill:#ececec;fill-opacity:1;stroke:#000000;stroke-width:0;stroke-dasharray:none"
       d="m 847.82103,0 2.65165,245.0125 299.37232,67.11195 3.8533,-312.2304055 -36.5343,0.211911 L 1111.8021,280.57716 876.00615,230.91207 873.75,0 Z"
       id="path14" /><path
       style="opacity:1;fill:#f2f2f2;fill-opacity:1;stroke:#000000;stroke-width:0;stroke-dasharray:none"
       d="m 873.58009,0 2.40493,230.92558 5.98471,-1.73355 L 879.97979,0 Z"
       id="path15" /><path
       style="opacity:1;fill:#f9f9f9;fill-opacity:1;stroke:#000000;stroke-width:0;stroke-dasharray:none"
       d="m 875.96409,230.91531 196.82781,41.73046 0.012,-3.68462 -190.78083,-39.80909 z"
       id="path16" /><path
       style="opacity:1;fill:#ececec;fill-opacity:1;stroke:#000000;stroke-width:0;stroke-dasharray:none"
       d="m 1152.095,0 -0.8726,97.573411 35.697,4.092039 L 1188.7243,0 Z"
       id="path17" /><path
       style="opacity:1;fill:#f2f2f2;fill-opacity:1;stroke:#000000;stroke-width:0;stroke-dasharray:none"
       d="m 1187.0843,0 -2.4446,103.17755 7.2519,0.42671 L 1193.6365,0 Z"
       id="path18" /><path
       style="opacity:1;fill:#ececec;fill-opacity:1;stroke:#000000;stroke-width:0;stroke-dasharray:none"
       d="m 1520.7649,0 -5.6916,152.26378 41.1311,8.44028 L 1563.5448,0 Z"
       id="path19" /><path
       style="display:inline;fill:#ececec;fill-opacity:1;stroke:#000000;stroke-width:0;stroke-dasharray:none"
       d="m 1562.2052,0 -7.1685,153.02443 42.5334,7.72463 L 1605.6177,0 Z"
       id="path19-3" /><path
       id="rect3"
       style="opacity:1;fill:#1a1a1a;stroke:#000000;stroke-width:0"
       d="m 1317.5602,491.72488 179.5527,53.68655 c 8.4925,2.53928 12.6132,12.15859 9.5943,20.49267 l -60.5273,51.94363 c -8.3611,7.49059 -21.4325,8.94536 -29.7712,5.93912 L 1244.544,561.82658 c -8.3387,-3.00623 -15.0031,-15.67317 -9.5943,-20.49267 l 62.1178,-40.01474 c 3.0189,-8.33409 12.0002,-12.13356 20.4927,-9.59429 z" /><path
       style="opacity:1;fill:#93ac9d;fill-opacity:1;stroke:#000000;stroke-width:0;stroke-dasharray:none"
       d="m 277.77856,778.20006 c -0.93123,-16.4204 40.38436,-45.69624 67.47552,-57.49859 49.9674,-21.76845 89.558,-41.30753 137.05142,-53.56032 40.43702,-10.43231 84.45098,-29.38896 124.18645,-16.54069 12.84117,4.15213 30.24627,14.36079 29.40567,27.83036 -2.44113,39.11603 -59.19097,53.16286 -94.78077,69.57592 -42.69828,19.6913 -137.31398,32.29373 -137.31398,32.29373 0,0 -77.25289,15.80853 -102.91985,18.64109 -10.28714,1.13527 -22.51846,-10.40851 -23.10446,-20.7415 z"
       id="path23" /><path
       style="opacity:1;fill:#0b280b;fill-opacity:1;stroke:#000000;stroke-width:0;stroke-dasharray:none"
       d="M 441.08506,1080 C 459.45793,1080 184.92528,785.28748 107.12066,745.64378 67.502925,725.4574 0,696.80937 0,696.80937 V 1080 Z"
       id="path24" /><path
       style="opacity:1;fill:#6f917c;fill-opacity:1;stroke:#000000;stroke-width:0;stroke-dasharray:none"
       d="m 382.67651,1004.3908 c 0,0 60.11945,-53.63948 110.51899,-79.91924 50.39954,-26.27976 146.87866,-82.79924 198.35819,-88.19919 51.47953,-5.39995 69.47937,11.87989 82.79924,18.71983 13.31988,6.83994 201.95816,116.99893 204.83813,145.4387 2.87998,28.4397 -4.67995,60.1292 -44.27959,79.5691 H 434.51603 Z"
       id="path27" /><path
       style="opacity:1;fill:#c8b7b7;fill-opacity:1;stroke:#000000;stroke-width:0;stroke-dasharray:none"
       d="M 834.34798,1036.2722 823.33393,1080 h -65.26842 l 8.15855,-26.3229 38.07325,-9.2464 z"
       id="path30" /><path
       style="opacity:1;fill:#e3dbdb;fill-opacity:1;stroke:#000000;stroke-width:0;stroke-dasharray:none"
       d="m 766.36513,1053.6622 -3.95238,1.3412 -8.1387,24.9966 h 3.86448 z"
       id="path31" /><path
       style="display:inline;fill:#93ac9d;fill-opacity:1;stroke:#000000;stroke-width:0;stroke-dasharray:none"
       d="m 601.361,1074.9708 c -2.33128,-17.7778 44.02401,-54.4527 74.97667,-70.4471 57.08966,-29.49991 102.15083,-55.3694 157.04938,-74.21798 46.74194,-16.04811 97.04598,-41.79565 144.71681,-32.40443 15.40558,3.03493 36.63154,12.1381 36.65814,26.90703 0.077,42.88948 -65.566,64.76464 -106.16029,86.76558 -48.70232,26.3954 -158.95977,51.084 -158.95977,51.084 0,0 -89.60854,26.1696 -119.56288,32.2285 -12.00549,2.4283 -27.25104,-8.7284 -28.71806,-19.9156 z"
       id="path23-6" /><path
       style="display:inline;opacity:1;fill:#e3dbdb;fill-opacity:1;stroke:#000000;stroke-width:0;stroke-dasharray:none"
       d="m 485.70583,764.18442 -44.46411,194.71746 -5.03111,3.26342 45.6879,-196.75709 z"
       id="path29" /><g
       id="g142"
       transform="matrix(1,0,0,-1,-60,2546.63)"><path
         id="rect32"
         style="opacity:1;fill:#1a1a1a;stroke:#000000;stroke-width:0"
         d="m 1014.72,1970.6 321.92,-138.24 c 3.52,-1.51 4.22,-4.7 1.56,-7.16 l -104.61,-96.42 c -3.09,-2.85 -8.52,-3.69 -12.14,-1.88 l -327.697,163.36 c -2.636,1.32 -2.154,4.09 1.063,6.22 l 110.074,72.77 c 2.84,1.88 7.21,2.48 9.83,1.35 z" /><path
         id="rect33"
         style="opacity:1;fill:#1a1a1a;stroke:#343434;stroke-width:2"
         d="m 1014.34,1948.34 8.92,-3.93 c 1.35,-0.6 1.28,-1.87 -0.16,-2.86 l -9.64,-6.59 c -1.46,-1 -3.73,-1.32 -5.08,-0.71 l -8.939,4.01 c -1.341,0.6 -1.238,1.88 0.226,2.87 l 9.643,6.51 c 1.45,0.98 3.69,1.29 5.03,0.7 z" /><path
         id="rect33-3"
         style="display:inline;fill:#1a1a1a;stroke:#343434;stroke-width:2"
         d="m 992.191,1920.12 9.049,-4.16 c 1.38,-0.63 1.28,-1.97 -0.22,-3.01 l -10.017,-6.93 c -1.52,-1.05 -3.852,-1.38 -5.226,-0.74 l -9.063,4.25 c -1.359,0.63 -1.225,1.98 0.296,3.02 l 10.023,6.85 c 1.502,1.02 3.8,1.34 5.158,0.72 z" /><path
         id="rect33-3-2"
         style="display:inline;fill:#1a1a1a;stroke:#343434;stroke-width:2"
         d="m 978.724,1906.39 9.1,-4.28 c 1.38,-0.64 1.262,-2.02 -0.268,-3.08 l -10.213,-7.1 c -1.55,-1.07 -3.912,-1.41 -5.293,-0.75 l -9.109,4.36 c -1.366,0.65 -1.214,2.04 0.337,3.1 l 10.223,7.01 c 1.531,1.05 3.859,1.38 5.223,0.74 z" /><path
         id="rect33-3-2-5"
         style="display:inline;fill:#1a1a1a;stroke:#343434;stroke-width:2"
         d="m 994.543,1898.96 9.247,-4.34 c 1.4,-0.65 1.3,-2.05 -0.23,-3.13 l -10.197,-7.19 c -1.548,-1.1 -3.928,-1.44 -5.33,-0.77 l -9.256,4.43 c -1.388,0.67 -1.255,2.07 0.295,3.15 l 10.212,7.11 c 1.529,1.06 3.873,1.39 5.259,0.74 z" /><path
         id="rect33-3-1"
         style="display:inline;fill:#1a1a1a;stroke:#343434;stroke-width:2"
         d="m 1007.93,1912.89 9.19,-4.22 c 1.4,-0.64 1.31,-2 -0.18,-3.05 l -10,-7.03 c -1.52,-1.07 -3.87,-1.4 -5.26,-0.75 l -9.211,4.31 c -1.381,0.65 -1.266,2.02 0.253,3.07 l 10.008,6.94 c 1.5,1.04 3.82,1.37 5.2,0.73 z" /><path
         id="rect87"
         style="opacity:1;fill:#1a1a1a;stroke:#343434;stroke-width:2"
         d="m 1005.34,1933.54 9.01,-4.05 c 1.36,-0.62 1.28,-1.93 -0.19,-2.94 l -9.82,-6.77 c -1.49,-1.03 -3.79,-1.35 -5.16,-0.73 l -9.016,4.14 c -1.352,0.61 -1.237,1.93 0.255,2.95 l 9.831,6.69 c 1.47,1 3.74,1.31 5.09,0.71 z" /><path
         id="rect87-7"
         style="display:inline;fill:#1a1a1a;stroke:#343434;stroke-width:2"
         d="m 1021,1926.5 9.14,-4.12 c 1.39,-0.62 1.32,-1.95 -0.15,-2.98 l -9.8,-6.86 c -1.49,-1.04 -3.81,-1.37 -5.2,-0.73 l -9.15,4.19 c -1.38,0.63 -1.28,1.97 0.21,3 l 9.82,6.78 c 1.47,1.01 3.75,1.33 5.13,0.72 z" /><path
         id="rect88"
         style="opacity:1;fill:#1a1a1a;stroke:#343434;stroke-width:2"
         d="m 1029.85,1941.51 9.06,-3.99 c 1.37,-0.61 1.32,-1.9 -0.12,-2.9 l -9.63,-6.68 c -1.46,-1.02 -3.74,-1.34 -5.12,-0.72 l -9.07,4.07 c -1.36,0.61 -1.28,1.91 0.19,2.91 l 9.63,6.6 c 1.44,0.99 3.7,1.31 5.06,0.71 z" /><path
         id="rect89"
         style="opacity:1;fill:#1a1a1a;stroke:#343434;stroke-width:2"
         d="m 1045.59,1934.57 9.2,-4.05 c 1.4,-0.61 1.37,-1.92 -0.07,-2.94 l -9.61,-6.78 c -1.46,-1.02 -3.76,-1.35 -5.15,-0.72 l -9.22,4.13 c -1.38,0.62 -1.31,1.94 0.15,2.96 l 9.62,6.69 c 1.44,1 3.7,1.32 5.08,0.71 z" /><path
         id="rect90"
         style="opacity:1;fill:#1a1a1a;stroke:#343434;stroke-width:2"
         d="m 1061.59,1927.53 9.34,-4.12 c 1.41,-0.62 1.4,-1.95 -0.03,-2.98 l -9.59,-6.87 c -1.46,-1.04 -3.77,-1.37 -5.19,-0.73 l -9.36,4.2 c -1.4,0.63 -1.36,1.96 0.1,2.99 l 9.6,6.79 c 1.44,1.02 3.72,1.34 5.13,0.72 z" /><path
         id="rect91"
         style="opacity:1;fill:#1a1a1a;stroke:#343434;stroke-width:2"
         d="m 1077.83,1920.38 9.49,-4.18 c 1.43,-0.64 1.44,-1.99 0.01,-3.03 l -9.57,-6.97 c -1.45,-1.05 -3.78,-1.39 -5.22,-0.74 l -9.51,4.27 c -1.43,0.64 -1.4,1.99 0.05,3.04 l 9.59,6.88 c 1.44,1.03 3.73,1.35 5.16,0.73 z" /><path
         id="rect92"
         style="opacity:1;fill:#1a1a1a;stroke:#343434;stroke-width:2"
         d="m 1094.32,1913.11 9.64,-4.25 c 1.46,-0.64 1.49,-2.01 0.06,-3.07 l -9.54,-7.06 c -1.45,-1.08 -3.8,-1.41 -5.27,-0.75 l -9.65,4.33 c -1.45,0.65 -1.45,2.03 0,3.09 l 9.57,6.97 c 1.43,1.05 3.75,1.38 5.19,0.74 z" /><path
         id="rect93"
         style="opacity:1;fill:#1a1a1a;stroke:#343434;stroke-width:2"
         d="m 1111.08,1905.73 9.79,-4.31 c 1.49,-0.66 1.54,-2.05 0.11,-3.12 l -9.52,-7.17 c -1.45,-1.09 -3.81,-1.42 -5.3,-0.76 l -9.81,4.41 c -1.47,0.66 -1.49,2.05 -0.04,3.13 l 9.54,7.08 c 1.43,1.05 3.76,1.39 5.23,0.74 z" /><path
         id="rect94"
         style="opacity:1;fill:#1a1a1a;stroke:#343434;stroke-width:2"
         d="m 1128.11,1898.23 9.95,-4.38 c 1.51,-0.67 1.58,-2.08 0.16,-3.17 l -9.5,-7.27 c -1.44,-1.1 -3.83,-1.44 -5.34,-0.76 l -9.97,4.47 c -1.5,0.67 -1.53,2.09 -0.09,3.18 l 9.52,7.18 c 1.43,1.07 3.77,1.41 5.27,0.75 z" /><path
         id="rect95"
         style="opacity:1;fill:#1a1a1a;stroke:#343434;stroke-width:2"
         d="m 1145.41,1890.61 10.11,-4.45 c 1.53,-0.68 1.63,-2.11 0.21,-3.21 l -9.47,-7.38 c -1.44,-1.12 -3.84,-1.47 -5.37,-0.78 l -10.14,4.55 c -1.52,0.68 -1.58,2.12 -0.14,3.23 l 9.5,7.28 c 1.42,1.09 3.78,1.43 5.3,0.76 z" /><path
         id="rect96"
         style="opacity:1;fill:#1a1a1a;stroke:#343434;stroke-width:2"
         d="m 1162.99,1882.87 10.27,-4.53 c 1.56,-0.68 1.68,-2.14 0.27,-3.26 l -9.44,-7.48 c -1.44,-1.14 -3.85,-1.49 -5.41,-0.79 l -10.31,4.62 c -1.54,0.7 -1.63,2.16 -0.19,3.28 l 9.47,7.39 c 1.42,1.1 3.79,1.45 5.34,0.77 z" /><path
         id="rect97"
         style="opacity:1;fill:#1a1a1a;stroke:#343434;stroke-width:2"
         d="m 1180.85,1875 10.45,-4.6 c 1.58,-0.7 1.73,-2.18 0.32,-3.31 l -9.41,-7.6 c -1.43,-1.15 -3.86,-1.51 -5.45,-0.79 l -10.47,4.7 c -1.57,0.7 -1.68,2.18 -0.25,3.32 l 9.44,7.5 c 1.41,1.12 3.81,1.47 5.37,0.78 z" /><path
         id="rect98"
         style="opacity:1;fill:#1a1a1a;stroke:#343434;stroke-width:2"
         d="m 1199.02,1867 10.62,-4.68 c 1.61,-0.71 1.78,-2.21 0.37,-3.36 l -9.37,-7.71 c -1.43,-1.17 -3.87,-1.53 -5.49,-0.81 l -10.65,4.78 c -1.6,0.72 -1.73,2.23 -0.3,3.38 l 9.4,7.61 c 1.41,1.14 3.82,1.49 5.42,0.79 z" /><path
         id="rect98-9"
         style="display:inline;fill:#1a1a1a;stroke:#343434;stroke-width:2.00001"
         d="m 1217.48,1858.87 29.76,-13.11 c 1.66,-0.73 1.89,-2.28 0.49,-3.47 l -9.3,-7.94 c -1.41,-1.21 -3.89,-1.58 -5.56,-0.83 l -29.85,13.39 c -1.63,0.73 -1.78,2.26 -0.36,3.44 l 9.37,7.72 c 1.4,1.15 3.83,1.51 5.45,0.8 z" /><path
         id="rect98-9-4"
         style="display:inline;fill:#1a1a1a;stroke:#343434;stroke-width:2.00001"
         d="m 1260.92,1839.73 11.23,-4.94 c 1.7,-0.75 1.96,-2.33 0.57,-3.54 l -9.24,-8.1 c -1.41,-1.23 -3.91,-1.61 -5.62,-0.84 l -11.26,5.05 c -1.69,0.76 -1.91,2.35 -0.5,3.56 l 9.28,7.99 c 1.39,1.2 3.86,1.56 5.54,0.82 z" /><path
         id="rect98-9-4-2"
         style="display:inline;fill:#1a1a1a;stroke:#343434;stroke-width:2.00001"
         d="m 1280.44,1831.14 11.41,-5.03 c 1.73,-0.76 2.02,-2.37 0.64,-3.6 l -9.19,-8.23 c -1.4,-1.25 -3.93,-1.62 -5.66,-0.85 l -11.46,5.15 c -1.72,0.77 -1.97,2.38 -0.56,3.61 l 9.23,8.12 c 1.39,1.21 3.87,1.58 5.59,0.83 z" /><path
         id="rect107"
         style="opacity:1;fill:#1a1a1a;stroke:#343434;stroke-width:2"
         d="m 999.06,1955.07 8.79,-3.87 c 1.33,-0.59 1.24,-1.84 -0.2,-2.82 l -9.652,-6.51 c -1.464,-0.98 -3.719,-1.3 -5.053,-0.7 l -8.8,3.95 c -1.319,0.59 -1.199,1.85 0.266,2.83 l 9.66,6.43 c 1.447,0.96 3.67,1.27 4.989,0.69 z" /><path
         id="rect107-8"
         style="display:inline;fill:#1a1a1a;stroke:#343434;stroke-width:1.49999"
         d="m 1010.23,1963.83 11.17,-4.85 c 0.66,-0.29 0.62,-0.91 -0.09,-1.39 l -3.84,-2.59 c -0.71,-0.48 -1.83,-0.63 -2.49,-0.34 l -11.18,4.89 c -0.66,0.28 -0.61,0.9 0.11,1.38 l 3.84,2.56 c 0.71,0.47 1.82,0.62 2.48,0.34 z" /><path
         id="rect107-8-5"
         style="display:inline;fill:#1a1a1a;stroke:#343434;stroke-width:1.49999"
         d="m 1033.18,1953.87 11.42,-4.95 c 0.68,-0.3 0.66,-0.93 -0.05,-1.42 l -3.84,-2.64 c -0.71,-0.49 -1.83,-0.65 -2.51,-0.35 l -11.44,5 c -0.67,0.29 -0.64,0.92 0.08,1.41 l 3.84,2.61 c 0.71,0.48 1.82,0.63 2.5,0.34 z" /><path
         id="rect107-8-5-3"
         style="display:inline;fill:#1a1a1a;stroke:#343434;stroke-width:1.49999"
         d="m 1048.77,1947.11 11.59,-5.03 c 0.7,-0.3 0.68,-0.94 -0.03,-1.44 l -3.82,-2.67 c -0.72,-0.5 -1.85,-0.66 -2.54,-0.36 l -11.61,5.08 c -0.68,0.29 -0.65,0.93 0.06,1.42 l 3.83,2.65 c 0.71,0.49 1.83,0.65 2.52,0.35 z" /><path
         id="rect107-2"
         style="display:inline;fill:#1a1a1a;stroke:#343434;stroke-width:2"
         d="m 982.309,1943.89 16.488,-7.41 c 1.343,-0.6 1.243,-1.9 -0.229,-2.9 l -9.833,-6.67 c -1.492,-1.02 -3.779,-1.34 -5.124,-0.72 l -16.506,7.56 c -1.322,0.61 -1.179,1.9 0.315,2.89 l 9.847,6.56 c 1.475,0.98 3.722,1.29 5.042,0.69 z" /><path
         id="rect107-2-89"
         style="display:inline;fill:#1a1a1a;stroke:#343434;stroke-width:2"
         d="m 1210.62,1841.22 20.48,-9.21 c 1.67,-0.75 1.87,-2.33 0.45,-3.55 l -9.5,-8.11 c -1.45,-1.24 -3.96,-1.61 -5.64,-0.84 l -20.54,9.41 c -1.64,0.75 -1.8,2.33 -0.34,3.54 l 9.55,7.95 c 1.43,1.19 3.9,1.55 5.54,0.81 z" /><path
         id="rect107-2-8"
         style="display:inline;fill:#1a1a1a;stroke:#343434;stroke-width:2"
         d="m 965.233,1932.5 20.378,-9.36 c 1.351,-0.62 1.233,-1.94 -0.269,-2.96 l -10.024,-6.84 c -1.522,-1.04 -3.838,-1.36 -5.19,-0.73 l -20.398,9.55 c -1.323,0.62 -1.158,1.94 0.365,2.95 l 10.041,6.68 c 1.504,1 3.775,1.32 5.097,0.71 z" /><path
         id="rect107-2-8-5"
         style="display:inline;fill:#1a1a1a;stroke:#343434;stroke-width:2.00001"
         d="m 947.821,1920.89 24.29,-11.4 c 1.358,-0.64 1.221,-1.99 -0.31,-3.04 l -10.223,-7 c -1.552,-1.06 -3.898,-1.39 -5.257,-0.74 l -24.311,11.63 c -1.324,0.63 -1.135,1.98 0.418,3.01 l 10.24,6.82 c 1.534,1.02 3.83,1.34 5.153,0.72 z" /><path
         id="rect107-2-8-5-2"
         style="display:inline;fill:#1a1a1a;stroke:#343434;stroke-width:2.00001"
         d="m 930.063,1909.04 16.541,-7.93 c 1.348,-0.65 1.179,-2.02 -0.384,-3.08 l -10.435,-7.09 c -1.584,-1.08 -3.949,-1.41 -5.298,-0.75 l -16.552,8.09 c -1.324,0.65 -1.112,2.02 0.474,3.08 l 10.444,6.95 c 1.564,1.04 3.886,1.37 5.21,0.73 z" /><path
         id="rect107-2-8-5-2-1"
         style="display:inline;fill:#1a1a1a;stroke:#343434;stroke-width:2.00001"
         d="m 953.172,1897.96 9.039,-4.34 c 1.37,-0.65 1.219,-2.05 -0.342,-3.13 l -10.427,-7.19 c -1.582,-1.09 -3.964,-1.43 -5.335,-0.76 l -9.046,4.43 c -1.357,0.66 -1.171,2.07 0.413,3.14 l 10.435,7.1 c 1.562,1.07 3.908,1.4 5.263,0.75 z" /><path
         id="rect107-2-8-5-2-1-0"
         style="display:inline;fill:#1a1a1a;stroke:#343434;stroke-width:2.00001"
         d="m 968.885,1890.42 9.184,-4.4 c 1.392,-0.67 1.26,-2.09 -0.3,-3.18 l -10.417,-7.29 c -1.581,-1.11 -3.979,-1.45 -5.372,-0.77 l -9.193,4.5 c -1.378,0.67 -1.211,2.09 0.372,3.19 l 10.426,7.2 c 1.561,1.08 3.923,1.41 5.3,0.75 z" /><path
         id="rect107-2-8-5-2-1-0-9"
         style="display:inline;fill:#1a1a1a;stroke:#343434;stroke-width:2.00001"
         d="m 984.85,1882.76 107.25,-51.44 c 1.56,-0.74 1.57,-2.31 0.03,-3.52 l -10.3,-8.06 c -1.56,-1.22 -4.08,-1.59 -5.64,-0.83 l -107.422,52.55 c -1.401,0.68 -1.252,2.13 0.329,3.24 l 10.415,7.3 c 1.56,1.1 3.939,1.44 5.338,0.76 z" /><path
         id="rect108"
         style="display:inline;fill:#1a1a1a;stroke:#343434;stroke-width:2"
         d="m 1036.89,1919.35 9.29,-4.18 c 1.41,-0.63 1.36,-1.98 -0.1,-3.02 l -9.79,-6.96 c -1.49,-1.06 -3.82,-1.39 -5.23,-0.74 l -9.3,4.26 c -1.4,0.64 -1.32,1.99 0.17,3.04 l 9.8,6.87 c 1.47,1.03 3.77,1.36 5.16,0.73 z" /><path
         id="rect109"
         style="display:inline;fill:#1a1a1a;stroke:#343434;stroke-width:2"
         d="m 1053.04,1912.09 9.43,-4.25 c 1.43,-0.64 1.41,-2.01 -0.06,-3.06 l -9.77,-7.06 c -1.48,-1.07 -3.83,-1.41 -5.26,-0.75 l -9.45,4.33 c -1.42,0.65 -1.36,2.02 0.12,3.08 l 9.79,6.97 c 1.47,1.05 3.78,1.37 5.2,0.74 z" /><path
         id="rect110"
         style="display:inline;fill:#1a1a1a;stroke:#343434;stroke-width:2"
         d="m 1069.44,1904.71 9.58,-4.31 c 1.46,-0.65 1.45,-2.04 -0.01,-3.11 l -9.75,-7.16 c -1.48,-1.09 -3.85,-1.43 -5.3,-0.76 l -9.61,4.4 c -1.44,0.66 -1.4,2.06 0.09,3.13 l 9.77,7.07 c 1.46,1.06 3.79,1.39 5.23,0.74 z" /><path
         id="rect111"
         style="display:inline;fill:#1a1a1a;stroke:#343434;stroke-width:2"
         d="m 1086.1,1897.22 9.74,-4.38 c 1.48,-0.66 1.49,-2.07 0.04,-3.16 l -9.74,-7.26 c -1.47,-1.11 -3.86,-1.45 -5.33,-0.77 l -9.76,4.47 c -1.47,0.67 -1.45,2.09 0.03,3.18 l 9.75,7.17 c 1.46,1.07 3.81,1.41 5.27,0.75 z" /><path
         id="rect112"
         style="display:inline;fill:#1a1a1a;stroke:#343434;stroke-width:2"
         d="m 1103.03,1889.61 9.9,-4.46 c 1.5,-0.67 1.54,-2.1 0.08,-3.2 l -9.7,-7.37 c -1.48,-1.12 -3.88,-1.47 -5.38,-0.78 l -9.92,4.55 c -1.49,0.68 -1.49,2.12 -0.01,3.22 l 9.73,7.27 c 1.45,1.09 3.82,1.43 5.3,0.77 z" /><path
         id="rect113"
         style="display:inline;fill:#1a1a1a;stroke:#343434;stroke-width:2"
         d="m 1120.24,1881.87 10.05,-4.52 c 1.53,-0.69 1.59,-2.14 0.14,-3.26 l -9.68,-7.48 c -1.47,-1.13 -3.89,-1.48 -5.42,-0.78 l -10.08,4.62 c -1.51,0.69 -1.54,2.15 -0.06,3.27 l 9.7,7.38 c 1.46,1.1 3.84,1.45 5.35,0.77 z" /><path
         id="rect114"
         style="display:inline;fill:#1a1a1a;stroke:#343434;stroke-width:2"
         d="m 1137.72,1874 10.22,-4.59 c 1.55,-0.7 1.64,-2.17 0.2,-3.31 l -9.66,-7.59 c -1.47,-1.15 -3.9,-1.5 -5.45,-0.79 l -10.25,4.69 c -1.54,0.71 -1.59,2.19 -0.12,3.33 l 9.68,7.49 c 1.45,1.12 3.85,1.46 5.38,0.77 z" /><path
         id="rect115"
         style="display:inline;fill:#1a1a1a;stroke:#343434;stroke-width:2"
         d="m 1155.49,1866.01 10.4,-4.67 c 1.57,-0.71 1.68,-2.21 0.24,-3.36 l -9.62,-7.7 c -1.46,-1.17 -3.92,-1.53 -5.5,-0.8 l -10.41,4.77 c -1.57,0.72 -1.64,2.22 -0.18,3.38 l 9.66,7.59 c 1.44,1.14 3.86,1.49 5.41,0.79 z" /><path
         id="rect116"
         style="display:inline;fill:#1a1a1a;stroke:#343434;stroke-width:2"
         d="m 1173.56,1857.89 10.57,-4.76 c 1.6,-0.72 1.74,-2.24 0.3,-3.41 l -9.59,-7.81 c -1.46,-1.19 -3.93,-1.55 -5.53,-0.82 l -10.6,4.86 c -1.59,0.73 -1.69,2.26 -0.23,3.43 l 9.63,7.71 c 1.44,1.15 3.87,1.51 5.45,0.8 z" /><path
         id="rect117"
         style="display:inline;fill:#1a1a1a;stroke:#343434;stroke-width:2"
         d="m 1191.93,1849.62 10.75,-4.83 c 1.63,-0.73 1.79,-2.27 0.36,-3.46 l -9.56,-7.94 c -1.45,-1.2 -3.94,-1.57 -5.57,-0.82 l -10.78,4.94 c -1.61,0.74 -1.74,2.29 -0.28,3.48 l 9.59,7.83 c 1.43,1.17 3.88,1.53 5.49,0.8 z" /><path
         id="rect118"
         style="display:inline;fill:#1a1a1a;stroke:#343434;stroke-width:2"
         d="m 1023.91,1905.55 9.34,-4.29 c 1.42,-0.65 1.36,-2.03 -0.14,-3.1 l -9.98,-7.13 c -1.52,-1.08 -3.88,-1.41 -5.3,-0.75 l -9.36,4.38 c -1.4,0.66 -1.3,2.04 0.21,3.11 l 10,7.04 c 1.5,1.06 3.83,1.39 5.23,0.74 z" /><path
         id="rect119"
         style="display:inline;fill:#1a1a1a;stroke:#343434;stroke-width:2"
         d="m 1040.15,1898.09 9.49,-4.36 c 1.44,-0.66 1.4,-2.06 -0.1,-3.14 l -9.96,-7.23 c -1.52,-1.1 -3.9,-1.44 -5.34,-0.76 l -9.5,4.45 c -1.43,0.66 -1.35,2.07 0.16,3.16 l 9.98,7.13 c 1.5,1.07 3.84,1.41 5.27,0.75 z" /><path
         id="rect120"
         style="display:inline;fill:#1a1a1a;stroke:#343434;stroke-width:2"
         d="m 1056.65,1890.52 9.64,-4.43 c 1.46,-0.67 1.44,-2.1 -0.05,-3.2 l -9.95,-7.33 c -1.51,-1.11 -3.91,-1.46 -5.37,-0.77 l -9.66,4.52 c -1.45,0.68 -1.39,2.11 0.12,3.21 l 9.97,7.24 c 1.49,1.08 3.85,1.42 5.3,0.76 z" /><path
         id="rect121"
         style="display:inline;fill:#1a1a1a;stroke:#343434;stroke-width:2"
         d="m 1073.41,1882.82 9.8,-4.5 c 1.48,-0.69 1.49,-2.13 0,-3.25 l -9.93,-7.44 c -1.51,-1.13 -3.92,-1.48 -5.41,-0.78 l -9.82,4.6 c -1.47,0.69 -1.44,2.14 0.07,3.25 l 9.95,7.35 c 1.49,1.1 3.87,1.44 5.34,0.77 z" /><path
         id="rect122"
         style="display:inline;fill:#1a1a1a;stroke:#343434;stroke-width:2"
         d="m 1090.45,1874.99 9.96,-4.57 c 1.51,-0.7 1.53,-2.16 0.05,-3.29 l -9.91,-7.56 c -1.5,-1.14 -3.93,-1.5 -5.45,-0.79 l -9.98,4.68 c -1.49,0.7 -1.48,2.17 0.02,3.3 l 9.93,7.46 c 1.49,1.11 3.88,1.46 5.38,0.77 z" /><path
         id="rect123"
         style="display:inline;fill:#1a1a1a;stroke:#343434;stroke-width:2"
         d="m 1107.76,1867.04 10.13,-4.65 c 1.53,-0.71 1.58,-2.2 0.1,-3.34 l -9.88,-7.67 c -1.5,-1.16 -3.95,-1.52 -5.49,-0.8 l -10.15,4.75 c -1.52,0.71 -1.53,2.21 -0.02,3.36 l 9.9,7.56 c 1.48,1.14 3.89,1.48 5.41,0.79 z" /><path
         id="rect124"
         style="display:inline;fill:#1a1a1a;stroke:#343434;stroke-width:2"
         d="m 1125.36,1858.95 10.3,-4.73 c 1.56,-0.71 1.63,-2.23 0.16,-3.39 l -9.86,-7.78 c -1.5,-1.18 -3.96,-1.54 -5.53,-0.81 l -10.31,4.83 c -1.55,0.73 -1.59,2.25 -0.09,3.41 l 9.88,7.68 c 1.48,1.15 3.91,1.5 5.45,0.79 z" /><path
         id="rect125"
         style="display:inline;fill:#1a1a1a;stroke:#343434;stroke-width:2"
         d="m 1143.26,1850.73 10.47,-4.8 c 1.58,-0.73 1.68,-2.27 0.21,-3.45 l -9.83,-7.9 c -1.49,-1.2 -3.97,-1.56 -5.56,-0.82 l -10.5,4.91 c -1.57,0.74 -1.63,2.29 -0.13,3.47 l 9.85,7.79 c 1.47,1.17 3.92,1.52 5.49,0.8 z" /><path
         id="rect126"
         style="display:inline;fill:#1a1a1a;stroke:#343434;stroke-width:2"
         d="m 1161.46,1842.37 10.64,-4.88 c 1.61,-0.74 1.74,-2.31 0.27,-3.51 l -9.79,-8.01 c -1.49,-1.22 -3.99,-1.59 -5.61,-0.83 l -10.67,4.99 c -1.6,0.75 -1.69,2.32 -0.19,3.52 l 9.82,7.91 c 1.47,1.19 3.93,1.55 5.53,0.81 z" /><path
         id="rect126-5"
         style="display:inline;fill:#1a1a1a;stroke:#343434;stroke-width:2"
         d="m 1179.96,1833.87 34.64,-15.9 c 1.68,-0.77 1.86,-2.39 0.41,-3.64 l -9.72,-8.29 c -1.47,-1.26 -4.02,-1.64 -5.7,-0.86 l -34.74,16.27 c -1.62,0.76 -1.73,2.35 -0.25,3.57 l 9.79,8.03 c 1.47,1.2 3.95,1.57 5.57,0.82 z" /><path
         id="rect127"
         style="display:inline;fill:#1a1a1a;stroke:#343434;stroke-width:2"
         d="m 1010.61,1891.42 9.4,-4.41 c 1.42,-0.67 1.34,-2.08 -0.18,-3.18 l -10.19,-7.3 c -1.55,-1.1 -3.94,-1.45 -5.37,-0.77 l -9.403,4.5 c -1.41,0.68 -1.296,2.1 0.252,3.2 l 10.201,7.21 c 1.53,1.08 3.89,1.41 5.29,0.75 z" /><path
         id="rect128"
         style="display:inline;fill:#1a1a1a;stroke:#343434;stroke-width:2"
         d="m 1026.94,1883.76 9.55,-4.48 c 1.45,-0.68 1.39,-2.12 -0.13,-3.23 l -10.18,-7.4 c -1.54,-1.13 -3.95,-1.48 -5.4,-0.78 l -9.56,4.57 c -1.43,0.69 -1.34,2.13 0.21,3.24 l 10.18,7.31 c 1.53,1.1 3.9,1.44 5.33,0.77 z" /><path
         id="rect129"
         style="display:inline;fill:#1a1a1a;stroke:#343434;stroke-width:2"
         d="m 1043.54,1875.97 9.7,-4.55 c 1.47,-0.69 1.43,-2.15 -0.09,-3.28 l -10.15,-7.51 c -1.54,-1.14 -3.97,-1.5 -5.44,-0.79 l -9.72,4.65 c -1.46,0.7 -1.38,2.16 0.16,3.29 l 10.17,7.42 c 1.52,1.11 3.91,1.45 5.37,0.77 z" /><path
         id="rect130"
         style="display:inline;fill:#1a1a1a;stroke:#343434;stroke-width:2"
         d="m 1060.4,1868.06 9.86,-4.63 c 1.5,-0.7 1.48,-2.19 -0.03,-3.33 l -10.14,-7.62 c -1.53,-1.16 -3.98,-1.52 -5.48,-0.8 l -9.88,4.73 c -1.48,0.7 -1.43,2.2 0.11,3.34 l 10.15,7.52 c 1.52,1.13 3.93,1.48 5.41,0.79 z" /><path
         id="rect131"
         style="display:inline;fill:#1a1a1a;stroke:#343434;stroke-width:2"
         d="m 1077.55,1860.01 10.02,-4.7 c 1.52,-0.72 1.53,-2.22 0.01,-3.38 l -10.11,-7.74 c -1.53,-1.18 -4,-1.54 -5.52,-0.81 l -10.04,4.81 c -1.51,0.72 -1.48,2.23 0.06,3.39 l 10.13,7.64 c 1.52,1.14 3.94,1.5 5.45,0.79 z" /><path
         id="rect132"
         style="display:inline;fill:#1a1a1a;stroke:#343434;stroke-width:2"
         d="m 1094.97,1851.83 10.2,-4.78 c 1.54,-0.73 1.57,-2.26 0.06,-3.43 l -10.09,-7.86 c -1.53,-1.19 -4.01,-1.55 -5.56,-0.81 l -10.21,4.88 c -1.53,0.74 -1.53,2.27 0.01,3.45 l 10.11,7.75 c 1.51,1.16 3.96,1.52 5.48,0.8 z" /><path
         id="rect133"
         style="display:inline;fill:#1a1a1a;stroke:#343434;stroke-width:2"
         d="m 1112.69,1843.52 10.37,-4.87 c 1.57,-0.73 1.62,-2.29 0.12,-3.48 l -10.06,-7.98 c -1.53,-1.21 -4.03,-1.58 -5.61,-0.82 l -10.38,4.97 c -1.56,0.74 -1.58,2.3 -0.05,3.5 l 10.09,7.87 c 1.51,1.18 3.97,1.54 5.52,0.81 z" /><path
         id="rect134"
         style="display:inline;fill:#1a1a1a;stroke:#343434;stroke-width:2"
         d="m 1130.71,1835.06 10.54,-4.95 c 1.6,-0.74 1.68,-2.32 0.18,-3.54 l -10.03,-8.09 c -1.53,-1.23 -4.05,-1.61 -5.65,-0.84 l -10.56,5.05 c -1.59,0.76 -1.63,2.35 -0.1,3.56 l 10.06,7.99 c 1.5,1.2 3.98,1.56 5.56,0.82 z" /><path
         id="rect134-1"
         style="display:inline;fill:#1a1a1a;stroke:#343434;stroke-width:2"
         d="m 1149.04,1826.46 48.7,-22.85 c 1.68,-0.79 1.84,-2.45 0.36,-3.72 l -9.93,-8.48 c -1.51,-1.29 -4.09,-1.68 -5.78,-0.87 l -48.83,23.36 c -1.61,0.78 -1.68,2.39 -0.16,3.62 l 10.03,8.11 c 1.5,1.22 4,1.59 5.61,0.83 z" /><path
         id="rect134-1-8"
         style="display:inline;fill:#1a1a1a;stroke:#343434;stroke-width:2"
         d="m 1159.82,1798.85 20.68,-9.92 c 1.69,-0.81 1.83,-2.51 0.31,-3.81 l -10.16,-8.68 c -1.54,-1.31 -4.15,-1.71 -5.84,-0.88 l -20.74,10.15 c -1.66,0.81 -1.75,2.5 -0.2,3.79 l 10.21,8.49 c 1.53,1.27 4.08,1.65 5.74,0.86 z" /><path
         id="rect134-1-8-9"
         style="display:inline;fill:#1a1a1a;stroke:#343434;stroke-width:2"
         d="m 1136.29,1810.13 15.51,-7.44 c 1.65,-0.79 1.75,-2.44 0.22,-3.71 l -10.21,-8.47 c -1.55,-1.29 -4.13,-1.68 -5.78,-0.87 l -15.55,7.6 c -1.62,0.8 -1.67,2.46 -0.11,3.72 l 10.24,8.32 c 1.53,1.25 4.07,1.63 5.68,0.85 z" /><path
         id="rect134-1-8-9-8"
         style="display:inline;fill:#1a1a1a;stroke:#343434;stroke-width:2"
         d="m 1117.84,1818.98 10.61,-5.09 c 1.61,-0.77 1.68,-2.39 0.14,-3.64 l -10.24,-8.31 c -1.56,-1.26 -4.12,-1.64 -5.73,-0.85 l -10.64,5.2 c -1.59,0.78 -1.62,2.41 -0.06,3.66 l 10.28,8.19 c 1.53,1.23 4.05,1.6 5.64,0.84 z" /><path
         id="rect134-1-8-9-8-4"
         style="display:inline;fill:#1a1a1a;stroke:#343434;stroke-width:2"
         d="m 1099.7,1827.68 10.43,-5 c 1.58,-0.76 1.62,-2.36 0.08,-3.58 l -10.27,-8.18 c -1.56,-1.25 -4.1,-1.62 -5.68,-0.85 l -10.46,5.12 c -1.57,0.77 -1.57,2.37 0,3.6 l 10.29,8.07 c 1.55,1.2 4.04,1.57 5.61,0.82 z" /><path
         id="rect134-1-8-9-8-4-6"
         style="display:inline;fill:#1a1a1a;stroke:#343434;stroke-width:2"
         d="m 1214.19,1772.77 11.6,-5.56 c 1.75,-0.85 1.96,-2.61 0.46,-3.95 l -10.07,-9.01 c -1.53,-1.37 -4.18,-1.77 -5.95,-0.91 l -11.63,5.69 c -1.74,0.85 -1.91,2.63 -0.37,3.97 l 10.1,8.88 c 1.51,1.32 4.12,1.72 5.86,0.89 z" /><path
         id="rect134-1-8-9-8-4-6-4"
         style="display:inline;fill:#1a1a1a;stroke:#343434;stroke-width:2"
         d="m 1231.31,1787.85 11.55,-5.42 c 1.75,-0.82 1.98,-2.54 0.51,-3.86 l -9.84,-8.8 c -1.49,-1.33 -4.11,-1.73 -5.87,-0.89 l -11.59,5.54 c -1.74,0.84 -1.92,2.57 -0.42,3.88 l 9.87,8.68 c 1.48,1.3 4.06,1.69 5.79,0.87 z" /><path
         id="rect134-1-8-9-8-4-6-5"
         style="display:inline;fill:#1a1a1a;stroke:#343434;stroke-width:2"
         d="m 1194.38,1782.27 11.39,-5.46 c 1.73,-0.83 1.91,-2.57 0.4,-3.89 l -10.11,-8.86 c -1.54,-1.34 -4.17,-1.75 -5.9,-0.9 l -11.43,5.59 c -1.71,0.84 -1.84,2.58 -0.3,3.91 l 10.14,8.73 c 1.52,1.3 4.11,1.7 5.81,0.88 z" /><path
         id="rect135"
         style="display:inline;fill:#1a1a1a;stroke:#343434;stroke-width:1.49999"
         d="m 1064.59,1940.25 11.78,-5.11 c 0.7,-0.31 0.7,-0.96 -0.01,-1.46 l -3.82,-2.71 c -0.71,-0.51 -1.85,-0.67 -2.55,-0.36 l -11.79,5.15 c -0.69,0.3 -0.67,0.95 0.04,1.45 l 3.82,2.68 c 0.71,0.5 1.84,0.66 2.53,0.36 z" /><path
         id="rect136"
         style="display:inline;fill:#1a1a1a;stroke:#343434;stroke-width:1.49999"
         d="m 1080.67,1933.28 11.96,-5.19 c 0.71,-0.31 0.72,-0.97 0.01,-1.48 l -3.81,-2.75 c -0.71,-0.52 -1.86,-0.68 -2.57,-0.37 l -11.97,5.24 c -0.71,0.31 -0.7,0.96 0.01,1.47 l 3.82,2.72 c 0.71,0.5 1.84,0.66 2.55,0.36 z" /><path
         id="rect136-3"
         style="display:inline;fill:#1a1a1a;stroke:#343434;stroke-width:1.49999"
         d="m 1105.24,1922.62 12.25,-5.31 c 0.73,-0.32 0.75,-0.99 0.05,-1.52 l -3.8,-2.81 c -0.71,-0.52 -1.87,-0.68 -2.6,-0.37 l -12.25,5.36 c -0.72,0.32 -0.73,0.99 -0.02,1.51 l 3.8,2.77 c 0.71,0.52 1.85,0.68 2.57,0.37 z" /><path
         id="rect136-3-4"
         style="display:inline;fill:#1a1a1a;stroke:#343434;stroke-width:1.49999"
         d="m 1121.95,1915.37 12.44,-5.4 c 0.74,-0.32 0.77,-1 0.07,-1.53 l -3.79,-2.85 c -0.7,-0.53 -1.87,-0.7 -2.61,-0.37 l -12.45,5.44 c -0.73,0.32 -0.75,1 -0.04,1.53 l 3.79,2.81 c 0.71,0.52 1.86,0.69 2.59,0.37 z" /><path
         id="rect137"
         style="display:inline;fill:#1a1a1a;stroke:#343434;stroke-width:1.49999"
         d="m 1138.92,1908.01 12.64,-5.48 c 0.75,-0.33 0.8,-1.02 0.1,-1.56 l -3.78,-2.89 c -0.7,-0.54 -1.88,-0.71 -2.63,-0.38 l -12.65,5.53 c -0.74,0.33 -0.78,1.02 -0.07,1.55 l 3.79,2.86 c 0.7,0.52 1.86,0.69 2.6,0.37 z" /><path
         id="rect138"
         style="display:inline;fill:#1a1a1a;stroke:#343434;stroke-width:1.49999"
         d="m 1156.17,1900.53 12.84,-5.57 c 0.76,-0.33 0.82,-1.04 0.12,-1.58 l -3.77,-2.93 c -0.7,-0.55 -1.88,-0.72 -2.65,-0.38 l -12.85,5.62 c -0.75,0.33 -0.8,1.03 -0.09,1.57 l 3.77,2.89 c 0.7,0.54 1.87,0.71 2.63,0.38 z" /><path
         id="rect138-1"
         style="display:inline;fill:#1a1a1a;stroke:#343434;stroke-width:1.49999"
         d="m 1182.56,1889.08 13.15,-5.7 c 0.78,-0.34 0.86,-1.06 0.16,-1.62 l -3.75,-2.99 c -0.69,-0.56 -1.89,-0.73 -2.67,-0.39 l -13.17,5.76 c -0.78,0.34 -0.84,1.05 -0.14,1.6 l 3.76,2.96 c 0.7,0.55 1.88,0.72 2.66,0.38 z" /><path
         id="rect138-1-9"
         style="display:inline;fill:#1a1a1a;stroke:#343434;stroke-width:1.49999"
         d="m 1200.51,1881.3 13.36,-5.8 c 0.8,-0.34 0.89,-1.08 0.2,-1.64 l -3.74,-3.04 c -0.69,-0.57 -1.9,-0.74 -2.69,-0.39 l -13.39,5.85 c -0.79,0.34 -0.86,1.07 -0.16,1.63 l 3.74,3 c 0.7,0.56 1.89,0.73 2.68,0.39 z" /><path
         id="rect139"
         style="display:inline;fill:#1a1a1a;stroke:#343434;stroke-width:1.49999"
         d="m 1218.75,1873.39 13.59,-5.9 c 0.81,-0.35 0.91,-1.09 0.22,-1.66 l -3.72,-3.09 c -0.69,-0.57 -1.9,-0.75 -2.71,-0.4 l -13.61,5.95 c -0.8,0.35 -0.89,1.09 -0.19,1.66 l 3.73,3.04 c 0.69,0.57 1.89,0.74 2.69,0.4 z" /><path
         id="rect140"
         style="display:inline;fill:#1a1a1a;stroke:#343434;stroke-width:1.49999"
         d="m 1237.3,1865.34 13.81,-5.99 c 0.83,-0.36 0.94,-1.11 0.25,-1.69 l -3.7,-3.13 c -0.69,-0.59 -1.91,-0.77 -2.73,-0.41 l -13.84,6.05 c -0.81,0.36 -0.91,1.11 -0.22,1.68 l 3.72,3.1 c 0.69,0.57 1.89,0.74 2.71,0.39 z" /><path
         id="rect141"
         style="display:inline;fill:#1a1a1a;stroke:#343434;stroke-width:2.00001"
         d="m 1300.29,1822.39 11.61,-5.11 c 1.76,-0.78 2.08,-2.41 0.71,-3.66 l -9.15,-8.35 c -1.39,-1.27 -3.93,-1.66 -5.7,-0.86 l -11.66,5.23 c -1.75,0.78 -2.03,2.42 -0.63,3.67 l 9.19,8.24 c 1.38,1.24 3.89,1.61 5.63,0.84 z" /><path
         id="rect98-9-4-6"
         style="display:inline;fill:#1a1a1a;stroke:#343434;stroke-width:2.00001"
         d="m 1244.83,1825.84 11.27,-5.07 c 1.71,-0.77 1.95,-2.38 0.53,-3.62 l -9.45,-8.28 c -1.43,-1.26 -3.97,-1.64 -5.69,-0.86 l -11.3,5.18 c -1.69,0.78 -1.89,2.4 -0.45,3.64 l 9.48,8.17 c 1.42,1.22 3.92,1.6 5.61,0.84 z" /><path
         id="rect98-9-4-2-6"
         style="display:inline;fill:#1a1a1a;stroke:#343434;stroke-width:2.00001"
         d="m 1264.42,1817.03 11.46,-5.16 c 1.74,-0.78 2.01,-2.42 0.6,-3.68 l -9.4,-8.41 c -1.43,-1.28 -3.99,-1.67 -5.73,-0.87 l -11.5,5.28 c -1.73,0.78 -1.96,2.44 -0.52,3.7 l 9.44,8.29 c 1.42,1.24 3.93,1.62 5.65,0.85 z" /><path
         id="rect141-3"
         style="display:inline;fill:#1a1a1a;stroke:#343434;stroke-width:2.00001"
         d="m 1284.35,1808.06 11.67,-5.24 c 1.76,-0.8 2.06,-2.47 0.66,-3.74 l -9.35,-8.55 c -1.42,-1.3 -4,-1.69 -5.78,-0.88 l -11.7,5.37 c -1.76,0.8 -2.02,2.48 -0.59,3.76 l 9.4,8.43 c 1.41,1.26 3.94,1.64 5.69,0.85 z" /><path
         id="rect142"
         style="display:inline;fill:#1a1a1a;stroke:#343434;stroke-width:2"
         d="m 1234.35,1763.1 11.81,-5.66 c 1.79,-0.86 2.03,-2.66 0.53,-4.02 l -10.02,-9.16 c -1.52,-1.39 -4.2,-1.8 -5.99,-0.92 l -11.85,5.79 c -1.78,0.87 -1.97,2.68 -0.44,4.05 l 10.06,9.01 c 1.5,1.35 4.14,1.76 5.9,0.91 z" /></g><path
       style="opacity:1;fill:#cccccc;fill-opacity:1;stroke:#333333;stroke-width:0;stroke-dasharray:none;stroke-opacity:1"
       d="m 716.68926,357.76781 c 0,0 -7.83987,-23.98077 1.61409,-43.11926 9.45396,-19.1385 24.44194,-34.35707 23.98077,-63.41069 -0.46116,-29.05362 -6.45636,-83.47151 -6.45636,-83.47151 l 7.60928,-1.61409 c 0,0 5.30344,64.10243 7.14812,85.54677 1.84467,21.44435 -10.83746,39.42991 -16.48678,53.38027 -5.64931,13.95035 -14.93203,14.35557 -8.70626,48.94322 6.22578,34.58764 -8.70286,3.74529 -8.70286,3.74529 z"
       id="path144" /><path
       id="path143-0"
       style="display:inline;fill:#666666;stroke:#333333;stroke-width:0"
       d="m 702.03874,355.0773 v 60.67535 a 36.974041,9.0491487 0 0 0 36.97404,9.04908 36.974041,9.0491487 0 0 0 36.97403,-9.04908 V 355.0773 Z" /><ellipse
       style="opacity:1;fill:#999999;fill-opacity:1;stroke:#333333;stroke-width:0;stroke-dasharray:none;stroke-opacity:1"
       id="path143"
       cx="739.01276"
       cy="354.99567"
       rx="36.974041"
       ry="9.0491486" /><path
       id="path145-2"
       style="display:inline;fill:#b3b3b3;stroke:#333333;stroke-width:0"
       d="m 726.92453,23.030497 c -1.51099,0.02051 -3.03075,0.08113 -4.54954,0.181464 -19.21771,1.270878 -34.38619,8.507341 -33.87991,16.163182 0.009,0.04201 0.0192,0.08399 0.0296,0.125914 l -0.87584,0.07777 -2.52685,117.639533 112.74722,-7.74509 -40.0923,-116.036416 C 755.78108,27.132794 743.00104,22.822156 726.9245,23.030495 Z" /><ellipse
       style="opacity:1;fill:#fff6d5;fill-opacity:1;stroke:#333333;stroke-width:0;stroke-dasharray:none;stroke-opacity:1"
       id="path145"
       cx="729.80499"
       cy="202.75575"
       rx="56.723736"
       ry="22.597261"
       transform="rotate(-3.7830885)" /><path
       style="display:inline;fill:#000000;fill-opacity:1;stroke:#333333;stroke-width:0;stroke-dasharray:none;stroke-opacity:1"
       d="m 1306.1277,804.17259 c 0,0 9.7474,11.91832 25.0678,28.4673 15.3202,16.54897 34.2802,37.93105 40.3233,39.1329 6.0429,1.20193 -13.8641,-45.96379 -13.8641,-45.96379 l -39.4999,-24.88007 z"
       id="path149-1" /><path
       style="fill:#1a1a1a;fill-opacity:1;stroke:#333333;stroke-width:0;stroke-dasharray:none;stroke-opacity:1"
       d="m 1301.6874,799.00755 c 0,0 30.2008,-14.25066 66.1522,-8.4289 35.9515,5.82171 43.1838,36.15136 49.1329,50.61777 5.949,14.46648 -4.407,25.6901 -11.5939,29.24208 -7.1866,3.55191 -31.4134,15.00575 -44.0967,-9.43422 -12.6837,-24.43993 -18.0044,-32.08321 -23.3008,-38.75561 -11.7589,-14.81392 -43.7312,-16.79185 -36.2937,-23.24112 z"
       id="path148" /><path
       id="rect2"
       style="opacity:1;fill:#000000;fill-opacity:1;stroke:#000000;stroke-width:0"
       d="m 1097.6516,85.750526 710.5525,99.348494 c 4.3893,0.61371 8.8806,3.65638 8,8 l -90.1561,444.68009 c -0.8807,4.34363 -3.7686,9.31835 -8,8 L 1064.4176,442.13236 c -4.2314,-1.31835 -8.4307,-3.58898 -8,-8 l 33.234,-340.381834 c 0.4307,-4.411024 3.6107,-8.613705 8,-8 z" /><rect
       style="display:inline;fill:#4d4d4d;fill-opacity:1;stroke:#333333;stroke-width:0;stroke-dasharray:none;stroke-opacity:1"
       id="rect150-3"
       width="91.225006"
       height="92.071602"
       x="928.34998"
       y="353.02377" /><rect
       style="display:inline;fill:#4d4d4d;fill-opacity:1;stroke:#333333;stroke-width:0;stroke-dasharray:none;stroke-opacity:1"
       id="rect150-1-7"
       width="101.361"
       height="11.030495"
       x="923.28198"
       y="436.74799" /><ellipse
       style="display:inline;fill:#b3b3b3;fill-opacity:1;stroke:#333333;stroke-width:0;stroke-dasharray:none;stroke-opacity:1"
       id="path149-3"
       cx="973.96289"
       cy="353.12491"
       rx="45.612587"
       ry="15.353256" /><ellipse
       style="display:inline;fill:#1a1a1a;fill-opacity:1;stroke:#333333;stroke-width:0;stroke-dasharray:none;stroke-opacity:1"
       id="path149-0-5"
       cx="973.96289"
       cy="353.87021"
       rx="41.627022"
       ry="13.415466" /><ellipse
       style="display:inline;fill:#666666;fill-opacity:1;stroke:#333333;stroke-width:0;stroke-dasharray:none;stroke-opacity:1"
       id="path149-8-8"
       cx="973.96289"
       cy="447.3313"
       rx="50.680653"
       ry="17.059174" /><ellipse
       style="display:inline;fill:#4d4d4d;fill-opacity:1;stroke:#333333;stroke-width:0;stroke-dasharray:none;stroke-opacity:1"
       id="path149-8-9-5"
       cx="973.96289"
       cy="438.98389"
       rx="50.680653"
       ry="17.059174" /><path
       id="rect150-0"
       style="fill:#800000;fill-opacity:1;stroke:#333333;stroke-width:0;stroke-dasharray:none;stroke-opacity:1"
       d="m 938.54334,328.20522 -7.35157,0.61523 2.36914,28.36328 c 0.67936,0.8762 2.69798,2.92231 7.83008,5.10547 z" /><path
       id="path150"
       style="fill:#550000;stroke:#333333;stroke-width:0"
       d="m 930.56694,277.04587 a 3.3728595,4.3214765 85.223926 0 0 -4.02347,3.61514 l -0.01,8.3e-4 4.24748,50.83653 a 1.7918315,4.3214765 85.223926 0 0 4.45459,1.42703 1.7918315,4.3214765 85.223926 0 0 4.158,-2.14662 l -4.24748,-50.83654 v 0 a 3.3728595,4.3214765 85.223926 0 0 -4.57946,-2.89634 z" /><ellipse
       style="display:inline;fill:#e9afaf;fill-opacity:1;stroke:#333333;stroke-width:0;stroke-dasharray:none;stroke-opacity:1"
       id="path151-2"
       cx="1033.4586"
       cy="83.774986"
       rx="3.537353"
       ry="1.227245"
       transform="rotate(10.283612)" /><path
       id="rect150-0-6-7"
       style="display:inline;fill:#006680;fill-opacity:1;stroke:#333333;stroke-width:0;stroke-dasharray:none;stroke-opacity:1"
       d="m 1006.207,202.1089 -3e-4,56.39473 c 0.8362,-0.0569 3.0017,-0.26109 7.3787,-0.92398 V 202.1085 Z"
       transform="rotate(6.2947891)" /><path
       id="rect151-2-8-9"
       style="display:inline;fill:#ffb380;fill-opacity:1;stroke:#333333;stroke-width:0;stroke-dasharray:none;stroke-opacity:1"
       d="m 997.07802,273.69731 -16.95706,93.45898 c 0.46787,-0.0143 2.51779,-0.0955 7.29687,-0.58399 l 16.62107,-91.61328 z" /><path
       id="path150-6-1"
       style="display:inline;fill:#164450;stroke:#333333;stroke-width:0"
       d="m 987.30883,260.28379 a 4.3214765,3.3728595 6.2947891 0 0 -4.64281,2.77522 l -0.0102,-9e-4 -5.59333,50.70617 a 4.3214765,1.7918315 6.2947891 0 0 4.09768,2.25583 4.3214765,1.7918315 6.2947891 0 0 4.49281,-1.30822 l 5.59333,-50.70617 v 0 a 4.3214765,3.3728595 6.2947891 0 0 -3.93801,-3.72176 z" /><path
       id="rect150-0-6-16"
       style="display:inline;fill:#ececec;fill-opacity:1;stroke:#333333;stroke-width:0;stroke-dasharray:none;stroke-opacity:1"
       d="m 999.18964,188.69247 -9.1e-4,43.16328 c 1.00827,0.003 3.60197,-0.0269 7.37817,-0.31248 l 5e-4,-42.8517 z"
       transform="rotate(7.8582926)" /><rect
       style="display:inline;fill:#b3b3b3;fill-opacity:1;stroke:#333333;stroke-width:0;stroke-dasharray:none;stroke-opacity:1"
       id="rect151-2-9"
       width="7.0749998"
       height="6.5434937"
       x="1029.9216"
       y="-94.425507"
       transform="matrix(0.98393614,0.17852079,0.17852079,-0.98393614,0,0)" /><ellipse
       style="display:inline;fill:#ffaaaa;fill-opacity:1;stroke:#333333;stroke-width:0;stroke-dasharray:none;stroke-opacity:1"
       id="path151-3-8"
       cx="1033.4586"
       cy="87.774986"
       rx="3.537353"
       ry="1.227245"
       transform="rotate(10.283612)" /><path
       id="path150-6-8"
       style="display:inline;fill:#4d4d4d;stroke:#333333;stroke-width:0"
       d="m 974.72201,272.87563 a 4.3214765,3.3728595 7.8582924 0 0 -4.7168,2.64751 l -0.01,-0.001 -6.97477,50.53468 a 4.3214765,1.7918315 7.8582924 0 0 4.03461,2.36679 4.3214765,1.7918315 7.8582924 0 0 4.52684,-1.18515 l 6.97477,-50.53468 v 0 a 4.3214765,3.3728595 7.8582924 0 0 -3.83502,-3.82781 z" /><path
       id="rect150-0-6-4"
       style="display:inline;fill:#006680;stroke:#333333;stroke-width:0"
       d="m 950.35554,326.79682 -7.37893,-6.2e-4 8.6e-4,39.03335 c 1.04701,0.41535 3.2534,1.10099 7.37768,1.89125 z"
       transform="rotate(-0.15641499)" /><path
       id="rect150-0-6-1"
       style="display:inline;fill:#2e2e2e;fill-opacity:1;stroke:#333333;stroke-width:0;stroke-dasharray:none;stroke-opacity:1"
       d="m 976.88536,233.68046 -8.2e-4,52.74336 c 1.3468,0.21331 3.79114,0.5101 7.37888,0.68304 l -1.3e-4,-53.42719 z"
       transform="rotate(4.6677746)" /><path
       id="path150-6-0"
       style="display:inline;fill:#164450;stroke:#333333;stroke-width:0"
       d="m 947.41254,272.56441 a 3.3728595,4.3214765 89.843585 0 0 -4.30157,3.27934 l -0.01,2e-5 0.13926,51.01348 a 1.7918315,4.3214765 89.843585 0 0 4.32518,1.78117 1.7918315,4.3214765 89.843585 0 0 4.31739,-1.80476 l -0.13926,-51.01348 v 0 a 3.3728595,4.3214765 89.843585 0 0 -4.33131,-3.25577 z" /><path
       id="path150-6-4"
       style="display:inline;fill:#1a1a1a;stroke:#333333;stroke-width:0"
       d="m 962.50709,261.22712 a 4.3214765,3.3728595 4.6677744 0 0 -4.56211,2.90596 l -0.01,-8.1e-4 -4.1514,50.84445 a 4.3214765,1.7918315 4.6677744 0 0 4.16008,2.13861 4.3214765,1.7918315 4.6677744 0 0 4.45386,-1.43527 l 4.15139,-50.84448 v 0 a 4.3214765,3.3728595 4.6677744 0 0 -4.04215,-3.60849 z" /><ellipse
       style="display:inline;fill:#b3b3b3;fill-opacity:1;stroke:#333333;stroke-width:0;stroke-dasharray:none;stroke-opacity:1"
       id="path151-3-5-3"
       cx="1033.4586"
       cy="94.417053"
       rx="3.537353"
       ry="1.227245"
       transform="rotate(10.283612)" /><path
       id="rect150-0-6-3"
       style="display:inline;fill:#ffcc00;fill-opacity:1;stroke:#333333;stroke-width:0;stroke-dasharray:none;stroke-opacity:1"
       d="m 1018.6381,-106.00631 -3e-4,50.676422 c 1.1016,-0.22746 3.4375,-0.78368 7.3786,-2.063616 v -48.613206 z"
       transform="rotate(24.097988)" /><rect
       style="display:inline;fill:#e9afaf;fill-opacity:1;stroke:#333333;stroke-width:0;stroke-dasharray:none;stroke-opacity:1"
       id="rect151-8"
       width="7.0749998"
       height="4.1023374"
       x="1029.9216"
       y="83.779686"
       transform="rotate(10.283612)" /><path
       id="path150-6-41"
       style="display:inline;fill:#1a1a1a;stroke:#333333;stroke-width:0"
       d="m 997.59807,273.50096 a 4.3214765,3.3728595 24.097989 0 0 -5.26898,1.22283 l -0.009,-0.005 -20.8288,46.56774 a 4.3214765,1.7918315 24.097989 0 0 3.21172,3.40069 4.3214765,1.7918315 24.097989 0 0 4.67766,0.12808 l 20.82883,-46.56776 v 0 a 4.3214765,3.3728595 24.097989 0 0 -2.61157,-4.74763 z" /><path
       id="rect151-2-8-6-7"
       style="display:inline;fill:#0f3820;fill-opacity:1;stroke:#333333;stroke-width:0;stroke-dasharray:none;stroke-opacity:1"
       d="m 1048.1105,28.284072 2e-4,95.752328 c 0.2726,-0.11056 5.2365,-2.12858 7.0748,-3.0462 l 10e-4,-92.706775 z"
       transform="rotate(13.558173)" /><rect
       style="display:inline;fill:#ececec;fill-opacity:1;stroke:#333333;stroke-width:0;stroke-dasharray:none;stroke-opacity:1"
       id="rect151-2-2-8"
       width="7.0749998"
       height="2.0334506"
       x="1048.1108"
       y="-28.778566"
       transform="matrix(0.9721324,0.23443249,0.23443249,-0.9721324,0,0)" /><ellipse
       style="display:inline;fill:#ececec;fill-opacity:1;stroke:#333333;stroke-width:0;stroke-dasharray:none;stroke-opacity:1"
       id="path151-3-5-8-2"
       cx="1051.6478"
       cy="28.70746"
       rx="3.537353"
       ry="1.227245"
       transform="rotate(13.558173)" /><ellipse
       style="display:inline;fill:#f2f2f2;fill-opacity:1;stroke:#333333;stroke-width:0;stroke-dasharray:none;stroke-opacity:1"
       id="path151-3-3-7"
       cx="1051.6478"
       cy="26.638096"
       rx="3.537353"
       ry="1.227245"
       transform="rotate(13.558173)" /><path
       id="rect151-2-8-6-0"
       style="display:inline;fill:#16502d;fill-opacity:1;stroke:#333333;stroke-width:0;stroke-dasharray:none;stroke-opacity:1"
       d="m 1053.081,-189.7457 -10e-5,86.34286 c 0.33,-0.25527 5.2788,-4.08124 7.0776,-5.54641 l -10e-4,-80.79593 z"
       transform="rotate(25.832356)" /><rect
       style="display:inline;fill:#ececec;fill-opacity:1;stroke:#333333;stroke-width:0;stroke-dasharray:none;stroke-opacity:1"
       id="rect151-2-2-89"
       width="7.0749998"
       height="2.0334506"
       x="1053.0817"
       y="189.25151"
       transform="matrix(0.90007284,0.43573946,0.43573946,-0.90007284,0,0)" /><ellipse
       style="display:inline;fill:#ececec;fill-opacity:1;stroke:#333333;stroke-width:0;stroke-dasharray:none;stroke-opacity:1"
       id="path151-3-5-8-28"
       cx="1056.6187"
       cy="-189.32262"
       rx="3.537353"
       ry="1.227245"
       transform="rotate(25.832356)" /><ellipse
       style="display:inline;fill:#f2f2f2;fill-opacity:1;stroke:#333333;stroke-width:0;stroke-dasharray:none;stroke-opacity:1"
       id="path151-3-3-2"
       cx="1056.6187"
       cy="-191.39198"
       rx="3.537353"
       ry="1.227245"
       transform="rotate(25.832356)" /><path
       id="rect152-2"
       style="display:inline;fill:#e6e6e6;fill-opacity:1;stroke:#000000;stroke-width:0;stroke-dasharray:none"
       d="m 1590.184,752.43068 186.7326,61.37084 -73.4047,236.26858 -223.1704,-91.29903 z" /><path
       id="rect152-2-8"
       style="display:inline;fill:#f2f2f2;fill-opacity:1;stroke:#000000;stroke-width:0;stroke-dasharray:none"
       d="m 1578.0955,743.59448 188.4082,56.01589 -66.631,238.26753 -225.6854,-84.89186 z" /><rect
       style="display:inline;fill:#16502d;fill-opacity:1;stroke:#333333;stroke-width:0;stroke-dasharray:none;stroke-opacity:1"
       id="rect151-2-8-6-8"
       width="7.7383742"
       height="172.74779"
       x="214.52835"
       y="-1544.1334"
       transform="rotate(107.63773)" /><ellipse
       style="display:inline;fill:#ececec;fill-opacity:1;stroke:#333333;stroke-width:0;stroke-dasharray:none;stroke-opacity:1"
       id="path151-3-5-8-0"
       cx="218.397"
       cy="-1543.6709"
       rx="3.8690264"
       ry="1.3423153"
       transform="rotate(107.63773)" /><rect
       style="display:inline;fill:#ececec;fill-opacity:1;stroke:#333333;stroke-width:0;stroke-dasharray:none;stroke-opacity:1"
       id="rect151-2-2-9"
       width="7.7383742"
       height="2.2241135"
       x="214.52852"
       y="1543.5931"
       transform="matrix(-0.30299751,0.95299135,0.95299135,0.30299751,0,0)" /><ellipse
       style="display:inline;fill:#f2f2f2;fill-opacity:1;stroke:#333333;stroke-width:0;stroke-dasharray:none;stroke-opacity:1"
       id="path151-3-3-0"
       cx="218.397"
       cy="-1545.9343"
       rx="3.8690264"
       ry="1.3423153"
       transform="rotate(107.63773)" /><path
       style="display:inline;fill:#f4e3d7;fill-opacity:1;stroke:#000000;stroke-width:0;stroke-dasharray:none;stroke-opacity:1"
       d="m 1241.8418,619.94353 -2.3116,7.27067 -12.109,-7.44835 z"
       id="path152-0" /><path
       id="path152-6-7"
       style="display:inline;fill:#1a1a1a;fill-opacity:1;stroke:#000000;stroke-width:0;stroke-dasharray:none;stroke-opacity:1"
       d="m 1230.7003,619.80663 -3.2801,-0.0408 2.7547,1.69391 z" /><path
       id="rect153-2-6"
       style="display:inline;fill:#ac9d93;stroke:#000000;stroke-width:0"
       d="m 1824.0521,571.12789 101.7736,59.38628 -24.6753,203.50693 -95.1704,-72.73151 z" /><path
       id="rect153-2-6-9"
       style="display:inline;fill:#ffe6d5;stroke:#000000;stroke-width:0"
       d="m 1829.4582,585.23997 85.2463,49.24995 -20.6683,183.62414 -79.7152,-61.48961 z" /><path
       style="opacity:1;fill:#c8beb7;fill-opacity:1;stroke:#000000;stroke-width:0;stroke-dasharray:none;stroke-opacity:1"
       d="m 1823.791,571.36853 101.429,59.32874 5.511,-1.25963 -100.9041,-57.81717 z"
       id="path153" /><path
       style="opacity:1;fill:#917c6f;fill-opacity:1;stroke:#000000;stroke-width:0;stroke-dasharray:none;stroke-opacity:1"
       d="m 1925.2856,630.69727 -24.2748,202.98994 7.9386,-3.84188 21.4536,-200.40769 z"
       id="path154" /><path
       style="opacity:1;fill:#003380;fill-opacity:1;stroke:#000000;stroke-width:0;stroke-dasharray:none;stroke-opacity:1"
       d="m 557.18007,554.84839 -9.10496,17.08621 149.19609,-4.36728 0.71656,0.41018 15.71247,0.32223 0.5655,-0.46132 144.8147,5.89569 -1.83644,-3.91368 -139.31318,-43.14408 z"
       id="path156" /><path
       style="opacity:1;fill:#bfbfbf;fill-opacity:1;stroke:#000000;stroke-width:0;stroke-dasharray:none;stroke-opacity:1"
       d="m 550.26262,564.24761 1.98882,4.64717 c 0,0 120.8897,-2.70306 154.00797,-3.43514 0.50122,-0.0111 -2.68509,-28.77639 -2.68509,-28.77639 l -124.43968,10.02668 z"
       id="path155" /><path
       id="rect154"
       style="opacity:1;fill:#e6e6e6;stroke:#000000;stroke-width:0"
       d="m 610.60802,453.93417 c 0,0 113.55604,-30.53976 109.45107,2.48187 l -13.71503,110.3277 c 2.33417,-18.77643 -156.01322,-1.65278 -156.01322,-1.65278 z" /><path
       style="display:inline;fill:#bfbfbf;fill-opacity:1;stroke:#000000;stroke-width:0;stroke-dasharray:none;stroke-opacity:1"
       d="m 862.01061,568.13453 -3.06493,4.00934 c 0,0 -119.96301,-4.75145 -152.82937,-6.0458 -0.49741,-0.0196 9.37231,-25.01769 9.37231,-25.01769 l 121.80068,11.20241 z"
       id="path155-5" /><path
       id="rect154-1"
       style="display:inline;fill:#ebebeb;fill-opacity:1;stroke:#000000;stroke-width:0"
       d="m 829.28692,456.25084 c 0,0 -105.67444,-32.86226 -109.77941,0.15936 l -13.71503,110.32771 c 2.33413,-18.77643 156.01323,1.65279 156.01323,1.65279 z" /><g
       id="g37"
       transform="rotate(1.0846048,1518.3569,1022.7909)"
       style="display:inline"><path
         style="display:inline;fill:#f9f9f9;fill-opacity:0.246154;stroke:#000000;stroke-width:0"
         id="path34-6"
         d="m 1481.3345,972.09753 c 0.084,0.52467 0.1945,1.0457 0.2514,1.57399 0.4898,4.54723 0.3505,9.16914 0.061,13.72246 -0.152,2.38992 -0.3234,4.78056 -0.604,7.1588 -0.2965,2.51361 -0.7508,5.00613 -1.1264,7.50922 -1.247,4.6622 -1.9819,9.185 -4.815,13.2491 -2.2609,3.2435 -5.518,5.4749 -9.4448,6.1499 -5.0727,0.8721 -7.4062,-0.6261 -12.0941,-2.2416 -5.3667,-3.2609 -6.4948,-3.3493 -10.6029,-8.2382 -2.6719,-3.1797 -3.8351,-4.679 -4.2942,-8.3537 -0.2114,-1.6925 -0.5703,-3.42308 -0.3048,-5.10801 0.2487,-1.57841 1.2059,-2.95946 1.809,-4.43912 1.3312,-1.10697 2.5035,-2.43951 3.9937,-3.32084 3.6627,-2.16623 7.706,-2.89464 11.8883,-3.19598 4.546,-0.32751 9.5214,0.12965 14.0239,0.72015 2.0135,0.26414 4.0069,0.66329 6.0104,0.99494 4.5029,0.90156 9.0044,1.92544 13.3365,3.47187 0.9379,0.33477 1.4659,0.5697 2.3456,0.94093 0.9363,0.46913 1.9284,0.80904 2.8774,1.24981 1.1584,0.61769 2.3251,1.21878 3.4921,1.82023 0.1302,0.0882 0.4642,0.40365 0.3906,0.26465 -0.4954,-0.93542 -1.1096,-1.80311 -1.6783,-2.6959 -0.011,-0.0174 -0.035,-0.0276 -0.056,-0.0268 -0.1606,0.007 -0.3194,0.0348 -0.4797,0.0471 -0.543,0.0406 -0.923,0.0493 -1.4741,0.0696 -1.0864,-0.0457 -2.1824,-0.12515 -3.2698,-0.0478 -0.5091,0.0362 -1.0034,0.13138 -1.5053,0.21629 -1.1488,0.20432 -2.1647,0.69041 -3.0386,1.45341 -0.5556,0.65068 -0.7482,1.51294 -0.6345,2.35555 0.025,0.1809 0.077,0.35695 0.1149,0.53546 0.5181,1.52527 1.4619,2.81226 2.3295,4.18496 0.075,0.1193 0.5218,0.5122 0.6366,0.5964 0.1193,0.088 0.2507,0.1573 0.3762,0.236 0.8708,0.3903 1.8482,0.7675 2.822,0.6833 0.2036,-0.017 0.4022,-0.072 0.6033,-0.1085 0.1855,-0.071 0.378,-0.1256 0.5565,-0.2124 0.9972,-0.4845 1.9551,-1.2634 2.7693,-2.0084 0.6943,-0.6812 1.2223,-1.49798 1.7915,-2.27961 1.0588,-1.37561 1.532,-0.86277 -1.3376,-3.2674 -0.1823,-0.15278 -0.2088,0.4275 -0.3132,0.64125 -0.6772,1.4537 -1.6549,2.76398 -2.2633,4.25076 -0.082,0.1994 -0.1383,0.4081 -0.2074,0.6121 -0.08,0.4833 -0.1803,1.0686 0.08,1.5271 1.5648,2.752 1.337,2.8448 3.0025,4.1782 0.1653,0.1177 0.3162,0.2588 0.496,0.3529 0.8354,0.437 1.8824,0.387 2.741,0.062 0.2318,-0.088 0.4466,-0.2152 0.67,-0.3228 1.1857,-0.6896 1.9492,-1.8431 2.8476,-2.842 0.8355,-0.9218 1.6822,-1.8325 2.5391,-2.7343 0.3091,-0.3052 1.3519,-1.3172 1.7891,-1.312 0.077,0 0.1309,0.083 0.1963,0.1246 0.6443,1.3281 -0.3859,-0.82214 -1.3431,-2.11748 -0.1358,-0.18373 0.1385,0.4362 0.1853,0.65982 0.2107,1.00756 0.2729,2.06106 0.4014,3.08076 0.2073,1.828 0.6983,3.6278 0.7588,5.473 0.01,0.2553 -0.01,0.5109 -0.012,0.7664 -0.067,0.1704 -0.089,0.3671 -0.2023,0.511 -0.2625,0.3334 -0.674,0.283 -1.0373,0.2321 -0.9232,-0.1293 -1.7916,-0.5231 -2.6417,-0.88 -1.5029,-0.7288 -2.6658,-1.9141 -3.8691,-3.0377 -0.6682,-0.6289 -1.3564,-1.2935 -1.8214,-2.0942 0.5476,0.9335 1.0952,1.8669 1.6429,2.8003 -0.054,0.055 -0.1612,0.089 -0.1611,0.1657 10e-5,0.065 0.1078,0.074 0.1613,0.1114 0.1169,0.081 0.2389,0.1559 0.3501,0.2448 0.057,0.046 1.024,0.8978 1.031,0.9041 0.9709,0.8542 1.9209,1.7733 3.0177,2.4707 0.229,0.1456 0.4718,0.2682 0.7076,0.4024 1.6613,0.7627 2.9486,0.6291 4.6163,0.017 1.0669,-0.5134 1.5985,-1.5603 2.3289,-2.4242 0.7324,-0.7535 1.6514,-1.282 2.6461,-1.6009 0.9567,-0.2639 1.889,-0.03 2.8256,0.1903 0.4719,0.157 1.0048,0.2427 1.4359,0.5079 0.131,0.081 0.7187,0.5564 0.8211,0.6381 0.1406,0.1547 0.2902,0.3016 0.4218,0.4642 0.159,0.1966 0.3098,0.4005 0.4488,0.6118 0.1491,0.2266 0.5597,0.9297 0.4146,0.7005 -0.4425,-0.6994 -0.7759,-1.4764 -1.3071,-2.111 -0.1811,-0.2163 0.176,0.5381 0.2232,0.8163 0.048,0.2823 0.041,0.5713 0.061,0.857 -0.057,1.613 -0.6828,3.1086 -1.4385,4.5094 -0.1157,0.1527 -0.2127,0.3216 -0.3472,0.458 -0.4481,0.454 -1.1007,0.5168 -1.6903,0.3465 -0.1622,-0.047 -0.3135,-0.1257 -0.4703,-0.1886 -0.6649,-0.2563 -1.147,-0.7685 -1.6581,-1.2398 -0.5861,-0.5403 -0.1629,-0.1171 -0.7218,-0.6997 -0.1806,-0.2614 -0.4278,-0.4683 -0.618,-0.7215 -0.092,-0.1219 -0.3243,-0.5168 -0.2473,-0.3851 2.6885,4.5924 1.5606,2.7783 1.1464,1.8076 -0.094,-0.2196 -0.1711,-0.446 -0.2566,-0.669 -0.1942,-0.6045 -0.2982,-1.2338 -0.3731,-1.8629 -0.02,-0.1644 -0.08,-0.7244 -0.043,-0.9166 0.025,-0.1264 0.098,-0.2383 0.1473,-0.3575 0.1183,-0.1025 0.2202,-0.2277 0.3549,-0.3076 0.8869,-0.5255 2.303,-0.5161 3.3046,-0.4701 1.4252,0.1759 2.7245,0.8614 3.9906,1.4985 0.8949,0.4403 1.7395,1.0119 2.7023,1.3048 0.5336,0.1624 0.6899,0.1425 1.2431,0.1825 0.6022,0.038 1.1947,-0.081 1.7937,-0.1112 0.1377,-0.01 0.2805,-0.042 0.4135,-0.01 0.077,0.021 0.2125,0.2326 0.1712,0.1649 -0.5446,-0.8939 -1.1234,-1.7666 -1.6851,-2.6499 0,0.1215 0.02,0.2452 0,0.3646 -0.06,0.3134 -0.3054,0.8465 -0.4317,1.1127 -0.3308,0.6977 -0.7144,1.3697 -1.09,2.0436 -0.6022,1.1098 -1.3124,2.1535 -1.9906,3.2168 -0.01,0.012 -0.5616,0.8995 -0.6149,0.9705 -0.029,0.038 -0.076,0.059 -0.1133,0.088 0.648,0.8638 1.1512,1.8581 1.9439,2.5913 0.1541,0.1425 0.1232,-0.4035 0.2206,-0.5894 0.1394,-0.2655 0.3236,-0.5049 0.4855,-0.7575 0.9961,-1.047 2.205,-1.9189 3.5559,-2.4524 0.6974,-0.2756 1.1078,-0.3364 1.8321,-0.496 1.0851,-0.169 2.2532,-0.2826 3.2813,0.18 0.084,0.074 0.1835,0.1322 0.2515,0.2206 0.068,0.088 0.2104,0.393 0.1487,0.3 -0.5487,-0.8278 -0.9726,-1.7455 -1.6113,-2.506 -0.1137,-0.1354 -0.015,0.3547 -0.049,0.528 -0.099,0.4947 -0.2789,0.8854 -0.4635,1.354 -0.3889,0.9273 -0.8885,1.8013 -1.5244,2.5817 -0.2985,0.3663 -0.7584,0.8467 -1.0837,1.1944 -0.2733,0.3716 -0.9764,0.8074 -1.0413,1.3124 -0.023,0.1738 -0.01,0.3687 0.08,0.5193 2.0493,3.4515 1.2564,2.7299 3.1969,4.0779 1.1739,0.7362 2.339,1.4935 3.5457,2.176 0.6028,0.3409 1.1605,0.6607 1.8392,0.8187 0.2516,0.059 0.5138,0.054 0.7706,0.082 0,0 -1.5033,-3.0102 -1.5033,-3.0102 v 0 c -0.2325,-0.033 -0.4702,-0.04 -0.6974,-0.099 -0.6304,-0.1646 -1.1947,-0.4802 -1.7579,-0.7965 -1.2088,-0.6789 -2.3783,-1.4307 -3.5247,-2.2093 -1.6787,-1.3101 -0.8665,-0.8872 0.2435,1.6205 0.062,0.1397 -0.2403,-0.2155 -0.2794,-0.3631 -0.1079,-0.4076 0.7226,-1.0134 0.9057,-1.2779 0.5652,-0.6117 1.155,-1.2148 1.6446,-1.891 0.4354,-0.6013 0.7594,-1.2762 1.0656,-1.9489 0.2022,-0.4719 0.3968,-0.885 0.5421,-1.3771 0.055,-0.1859 0.1989,-0.3874 0.1273,-0.5677 -0.465,-1.1732 -1.099,-2.273 -1.6944,-3.3857 -0.057,-0.1055 -0.1576,-0.1824 -0.2531,-0.2545 -0.1004,-0.076 -0.2194,-0.1235 -0.3292,-0.1853 -1.1152,-0.3474 -2.2912,-0.249 -3.4248,-0.027 -0.7373,0.1736 -1.1834,0.2488 -1.893,0.5399 -1.3935,0.5716 -2.6324,1.4973 -3.7107,2.5332 -0.1861,0.2548 -0.3909,0.497 -0.5585,0.7643 -0.1149,0.1832 -0.3668,0.3819 -0.2857,0.5823 1.621,4.0013 1.4044,3.8665 2.5716,1.9921 0.6823,-1.0711 1.411,-2.113 1.9962,-3.243 0.6615,-1.1736 1.3723,-2.3436 1.7891,-3.6315 -0.6163,-1.0518 -1.1703,-2.1428 -1.849,-3.1556 -0.086,-0.129 -0.6846,-0.053 -0.7371,-0.049 -0.5776,0.046 -1.1534,0.1436 -1.735,0.092 -0.1958,-0.022 -0.3939,-0.031 -0.5875,-0.068 -1.17,-0.2236 -2.1678,-0.9473 -3.2294,-1.4395 -1.309,-0.6514 -2.6519,-1.363 -4.1372,-1.4661 -1.1258,-0.015 -2.5166,0.01 -3.5217,0.5777 -0.1748,0.099 -0.3169,0.2477 -0.4752,0.3716 -0.091,0.1472 -0.2173,0.2779 -0.2734,0.4416 -0.064,0.1863 -0.014,0.8043 0.01,0.9674 0.067,0.6446 0.1746,1.2897 0.3281,1.9191 0.7248,2.1063 1.8251,4.126 3.3699,5.7418 0.7521,0.7348 1.516,1.497 2.5193,1.8747 0.1789,0.054 0.3534,0.1266 0.5367,0.1636 0.7081,0.1431 1.4665,-0.016 1.9905,-0.5334 0.149,-0.1471 0.2578,-0.3301 0.3866,-0.4952 0.7882,-1.4381 1.432,-2.9826 1.5734,-4.632 -0.01,-0.4626 0.041,-1.3071 -0.1756,-1.751 -0.4255,-0.874 -1.871,-3.7277 -2.9558,-4.9323 -0.1459,-0.162 -0.3133,-0.3034 -0.4699,-0.455 -0.3301,-0.2484 -0.5431,-0.4298 -0.9091,-0.623 -0.4597,-0.2427 -0.9932,-0.3285 -1.4868,-0.4699 -1.0151,-0.2186 -1.9579,-0.407 -2.985,-0.1008 -1.0498,0.3517 -2.0135,0.9118 -2.8014,1.6985 -0.1275,0.1448 -0.2633,0.2825 -0.3827,0.4341 -0.5586,0.7093 -0.9318,1.4963 -1.7953,1.9111 -1.59,0.5956 -2.7886,0.66 -4.3395,-0.1335 -0.2272,-0.1403 -0.4602,-0.2716 -0.6817,-0.4209 -1.0752,-0.725 -2.0239,-1.6254 -2.9898,-2.4841 -0.4604,-0.4017 -0.9409,-0.9191 -1.5225,-1.151 -0.2155,-0.086 -0.774,-0.079 -0.683,0.1341 0.462,1.0851 1.1741,2.0457 1.7612,3.0686 0.5496,0.7401 1.1926,1.4082 1.8804,2.0205 1.2192,1.1196 2.4266,2.2669 3.9617,2.9502 0.9951,0.3983 3.2361,1.4565 4.1497,0.4334 0.1498,-0.1678 0.1999,-0.4029 0.2999,-0.6043 0.01,-0.2653 0.036,-0.5303 0.031,-0.7957 -0.033,-1.8602 -0.5612,-3.6716 -0.7664,-5.512 -0.047,-0.385 -0.099,-0.7696 -0.1417,-1.1551 -0.2545,-2.302 -0.2684,-4.64592 -2.584,-6.19047 -0.1281,-0.007 -0.2581,-0.0413 -0.3841,-0.0181 -0.1256,0.0232 -0.2382,0.0938 -0.3509,0.15386 -0.5912,0.31548 -1.0758,0.78605 -1.5537,1.24677 -0.8503,0.91286 -1.6835,1.83994 -2.527,2.75914 -0.1682,0.177 -0.3419,0.3491 -0.5047,0.5311 -0.7075,0.7905 -1.2668,1.7261 -2.2347,2.2442 -0.2053,0.098 -0.402,0.2162 -0.6159,0.2937 -1.0514,0.3806 -2.1163,0.1547 -2.9523,-0.5673 -0.154,-0.1327 -0.3146,-0.2578 -0.4618,-0.398 -0.152,-0.1447 -0.5213,-0.6467 -0.4345,-0.4557 0.384,0.8452 0.8848,1.6323 1.3374,2.4428 0.076,0.1363 -0.1575,-0.272 -0.2077,-0.4198 -0.1344,-0.3959 -0.084,-0.5702 -0.065,-0.9886 0.054,-0.2016 0.092,-0.4082 0.1611,-0.605 0.5297,-1.5005 1.5439,-2.814 2.2515,-4.2298 0.1154,-0.20679 0.4235,-0.39408 0.3489,-0.61893 -1.2587,-3.79931 -1.1153,-4.04177 -2.3941,-2.43226 -0.5517,0.77177 -1.0582,1.58161 -1.7219,2.26557 -0.9191,0.87284 -1.9458,1.69652 -3.1549,2.12002 -0.182,0.027 -0.3623,0.072 -0.5461,0.081 -0.9276,0.045 -1.8602,-0.3459 -2.6528,-0.78647 -0.3081,-0.23565 -0.3681,-0.25951 -0.6297,-0.54627 -0.096,-0.10536 -0.3381,-0.45651 -0.2713,-0.33057 2.5691,4.84181 1.5167,2.73121 1.0049,1.65351 -0.054,-0.1647 -0.1225,-0.325 -0.16,-0.494 -0.1282,-0.57792 -0.1106,-1.2898 0.1487,-1.83208 0.059,-0.12421 0.1533,-0.22876 0.2298,-0.34311 0.8254,-0.75937 1.7484,-1.18629 2.8565,-1.38873 0.5913,-0.10057 0.851,-0.15988 1.4588,-0.1994 1.0896,-0.0711 2.1833,0.008 3.272,0.045 0.4953,-0.0145 1.6291,0.0174 2.0907,-0.12399 0.1813,-0.0558 0.5748,-0.0864 0.5047,-0.26255 -1.0997,-2.76173 -0.9019,-2.56147 -2.246,-3.31982 -1.1869,-0.59406 -2.3465,-1.23807 -3.5236,-1.85003 -0.9428,-0.40938 -1.9155,-0.74596 -2.8539,-1.16628 -4.9836,-1.88896 -10.256,-2.87564 -15.4802,-3.83651 -1.9923,-0.29786 -3.9771,-0.65192 -5.977,-0.89366 -4.4993,-0.5438 -9.5587,-1.0085 -14.0947,-0.71688 -4.3209,0.27785 -8.3045,0.92244 -12.1025,3.11811 -1.5373,0.8888 -2.7587,2.23671 -4.138,3.35514 -0.6303,1.5146 -1.6241,2.92509 -1.8909,4.54374 -0.7793,4.72807 1.5385,8.96985 3.699,12.95025 1.9911,3.6684 5.1962,7.3896 8.4963,9.9194 1.8007,1.3804 3.8882,2.3397 5.8323,3.5096 4.7643,1.6269 7.1558,3.149 12.3081,2.2378 4.0475,-0.7158 7.2615,-2.9937 9.5552,-6.3579 2.7603,-4.0486 3.579,-8.7719 4.8178,-13.3777 0.39,-2.4916 0.8504,-4.97323 1.1702,-7.47488 0.2998,-2.34575 0.4982,-4.70391 0.6878,-7.06113 0.3552,-4.4186 0.5942,-8.8823 0.3093,-13.31337 -0.032,-0.49943 -0.1057,-0.99531 -0.1585,-1.49293 z" /><path
         style="display:inline;fill:#f9f9f9;fill-opacity:0.246154;stroke:#000000;stroke-width:0"
         id="path35-1"
         d="m 1575.7651,1030.545 c 0.695,-1.5231 1.3289,-3.2682 1.4916,-4.9443 0.033,-0.3451 0.013,-0.6932 0.02,-1.0397 -0.098,-0.347 -0.114,-0.7285 -0.2939,-1.041 -0.7908,-1.3742 -1.6007,-2.7517 -2.598,-3.9843 -0.4643,-0.5738 -1.1232,-0.9635 -1.737,-1.3734 -1.9552,-1.3053 -3.7444,-2.1457 -5.9816,-2.9426 -1.2818,-0.4566 -2.6064,-0.7827 -3.9096,-1.174 -1.4173,-0.2297 -2.8191,-0.5992 -4.2521,-0.6891 -3.2301,-0.2027 -6.0449,0.2426 -9.1752,0.9882 -2.6303,0.6265 -5.3484,1.5473 -7.7802,2.7491 -1.0257,0.5069 -1.976,1.1538 -2.964,1.7307 -2.2537,1.8156 -4.1703,3.4167 -4.8157,6.3839 -0.5911,2.7178 0.216,5.3053 0.9044,7.8986 0.2674,0.7498 0.4746,1.5238 0.8022,2.2493 0.321,0.7109 0.7228,1.3842 1.137,2.0452 1.8766,2.995 2.284,4.0951 4.5374,6.0272 1.4559,1.2484 2.2408,1.639 3.8692,2.6351 2.3526,1.2194 4.786,2.545 7.473,2.8041 0.2306,0.023 0.4631,0.015 0.6946,0.023 0.1379,-0.01 0.2756,-0.011 0.4134,-0.017 0,0 -1.5785,-3.0188 -1.5785,-3.0188 v 0 c -0.1239,0.011 -0.2478,0.022 -0.3716,0.033 -0.2154,0 -0.4315,0.01 -0.6461,-0.01 -2.6182,-0.2161 -4.9974,-1.5169 -7.2781,-2.7105 -1.6539,-1.0375 -2.3404,-1.3724 -3.8083,-2.6772 -0.5498,-0.4887 -0.8888,-1.2487 -1.5501,-1.5705 -0.2909,-0.1417 0.4614,1.1826 0.2499,0.9378 -1.0167,-1.176 -1.5022,-2.8711 -2.0278,-4.2778 -0.7055,-2.5242 -1.5437,-5.1014 -1.0428,-7.7636 0.5543,-2.9457 2.3811,-4.5346 4.5731,-6.3673 0.9666,-0.5871 1.8936,-1.2453 2.9002,-1.7613 2.3698,-1.215 5.099,-2.18 7.6789,-2.7971 3.1199,-0.7463 5.8894,-1.1425 9.1045,-0.9046 1.4264,0.1055 2.8188,0.4863 4.2282,0.7294 1.3,0.4105 2.6243,0.7502 3.8998,1.2312 2.2204,0.8373 4.0631,1.7612 5.9742,3.139 0.6122,0.4415 0.9714,1.6128 1.7144,1.4795 0.5907,-0.106 -0.44,-1.1174 -0.6888,-1.6636 -0.1443,-0.3166 0.2499,0.6496 0.3749,0.9744 0.01,0.3384 0.053,0.6774 0.031,1.0152 -0.024,0.3658 -0.097,0.7271 -0.1664,1.0871 -0.2473,1.2867 -0.6523,2.5592 -1.2778,3.7128 z" /><path
         style="display:inline;fill:#f9f9f9;fill-opacity:0.246154;stroke:#000000;stroke-width:0"
         id="path36-4"
         d="m 1554.3225,1027.955 c -1.2285,0.6423 -2.7777,1.1727 -3.4655,2.4855 -0.1046,0.1997 -0.1391,0.4288 -0.2086,0.6433 0.01,0.2072 -0.019,0.4182 0.022,0.6215 0.041,0.2029 0.1122,0.4037 0.2195,0.5806 0.7088,1.1683 1.4048,2.3501 2.2225,3.445 0.2017,0.2699 0.5301,0.4166 0.806,0.6101 0.5832,0.4091 1.5211,0.9882 2.123,1.3667 0.7859,0.4787 1.0091,0.6558 1.8179,1.0066 0.2849,0.1237 0.8597,0.3671 1.2176,0.2939 0.4167,-0.085 0.5478,-0.3664 0.7832,-0.667 0.4126,-0.9322 0.4091,-1.9278 0.031,-2.8631 -0.661,-1.0713 -1.2731,-2.1743 -1.9829,-3.2138 -0.1004,-0.147 -0.2835,-0.2157 -0.4292,-0.3182 -0.5231,-0.3681 -1.0747,-0.6914 -1.6239,-1.0183 0,0 1.3791,3.0787 1.3791,3.0787 v 0 c 0.5389,0.3298 1.0952,0.6511 1.5846,1.0543 0.9849,0.8111 1.1566,1.739 -1.0696,-2.2364 0.5199,0.854 0.5483,1.7047 0.2739,2.658 -0.1118,0.1857 -0.2021,0.4558 -0.4671,0.4919 -0.3022,0.041 -0.8695,-0.2022 -1.0888,-0.2995 -0.7616,-0.3375 -1.0228,-0.5319 -1.7681,-0.9827 -0.7377,-0.4713 -1.4054,-0.8756 -2.1012,-1.4099 -0.2673,-0.2052 -0.8507,-0.9835 -0.7687,-0.6567 0.2093,0.8344 0.8001,1.5234 1.1798,2.2953 0.088,0.1783 -0.2285,-0.329 -0.3032,-0.5131 -0.071,-0.1749 -0.086,-0.3676 -0.1284,-0.5515 0.034,-0.1963 0.028,-0.4043 0.1026,-0.5888 0.5322,-1.3059 2.1302,-1.7977 3.2883,-2.3399 z" /><path
         style="display:inline;fill:#f9f9f9;fill-opacity:0.246154;stroke:#000000;stroke-width:0"
         id="path37-2"
         d="m 1562.3874,1035.2002 c -0.8919,0.5516 -1.8872,1.1334 -2.502,2.0135 -0.1153,0.1651 -0.192,0.3541 -0.288,0.5311 0,0.2145 -0.097,0.4516 0,0.6436 0.6196,1.2441 1.3045,2.464 2.1121,3.5952 0.2537,0.3553 0.6726,0.5587 1.0314,0.8076 0.6981,0.4842 1.904,1.1847 2.6818,1.5304 0.4346,0.1931 0.8929,0.3276 1.3393,0.4913 0.4048,0.081 0.8038,0.1993 1.2143,0.2424 0.9998,0.1048 2.3663,-0.1261 2.6131,-1.311 0.045,-0.2177 0,-0.4447 0,-0.667 -1.1552,-3.5196 -3.513,-5.5049 -6.1448,-7.7469 -0.079,-0.113 -0.2985,-0.4623 -0.2366,-0.3391 0.5329,1.0586 1.0211,2.1451 1.6511,3.1489 0.094,0.149 0.3138,0.1591 0.4726,0.2348 0.6376,0.3045 1.2811,0.5493 1.9502,0.7744 0.5995,0.2132 1.4191,0.1762 1.9931,0.4461 0.2426,0.1141 0.4668,0.2723 0.6646,0.4534 0.8317,0.7619 0.9156,1.1369 1.4951,2.1737 -0.2925,-0.3679 -0.7546,-1.5574 -0.8777,-1.1037 -0.1763,0.6503 0.4661,1.2654 0.6588,1.911 0.2115,0.7079 0.4051,1.4225 0.5528,2.1462 0.3998,1.959 0.4945,3.0018 0.3281,5.0372 -0.077,0.9381 -0.2728,1.8626 -0.4092,2.7939 -0.2308,0.9244 -0.4268,1.8582 -0.6924,2.7732 -0.5047,1.7384 -1.1745,3.4931 -1.8803,5.1591 -0.5133,1.2114 -1.3839,3.0908 -2.0327,4.2697 -0.3105,0.5639 -0.6667,1.1014 -1.0001,1.652 -0.9109,1.2245 -1.8283,2.8698 -3.3313,3.4701 -0.7505,0.2997 -0.9964,0.2038 -1.7965,0.1749 -0.327,-0.065 -0.6694,-0.077 -0.9809,-0.1959 -0.8851,-0.3379 -1.5801,-0.9841 -2.1665,-1.7119 -0.4621,-0.5735 -0.9642,-1.1454 -1.2413,-1.8278 -0.059,-0.145 0.413,-0.096 0.3969,-0.2513 -0.1246,-1.2065 -0.5265,-2.3681 -0.7897,-3.5522 -0.088,-1.2733 -0.2601,-2.5435 -0.2644,-3.8199 -0.012,-3.4837 0.5721,-6.6951 2.5011,-9.6553 1.3786,-2.1156 1.9998,-2.309 3.9726,-3.774 0.7681,-0.3911 1.5005,-0.8619 2.3043,-1.1732 1.5428,-0.5975 3.5633,-0.9338 5.1908,-1.1854 2.4216,-0.3743 4.868,-0.59 7.3034,-0.8499 1.6117,-0.085 3.3221,-0.5349 4.9212,-0.05 0.7056,0.214 1.3941,0.7049 1.8733,1.2578 0.2405,0.2777 0.4059,0.6125 0.6089,0.9187 -0.3976,-0.6229 -0.6462,-1.3714 -1.1926,-1.8688 -0.2592,-0.236 0.2047,0.6727 0.259,1.0189 0.052,0.3352 0.088,0.6779 0.06,1.0162 -0.053,0.6493 -0.306,1.3666 -0.6872,1.8975 -0.1915,0.2667 -0.4575,0.4709 -0.6863,0.7063 -0.3224,0.1615 -0.6245,0.3726 -0.9673,0.4845 -1.7713,0.5779 -4.2989,0.1733 -6.0929,-0.209 -0.2121,-0.065 -0.4323,-0.1083 -0.6361,-0.1959 -0.055,-0.024 -0.083,-0.087 -0.1247,-0.1312 0.575,1.053 1.054,2.1645 1.7249,3.1592 0.1021,0.1515 0.3462,0.1173 0.521,0.1705 0.75,0.228 0.954,0.2711 1.7386,0.4735 2.4717,0.5301 4.997,0.9086 7.5326,0.8092 0.5382,-0.021 1.0735,-0.088 1.6103,-0.1325 1.9124,-0.2591 3.8273,-0.717 5.1457,-2.2395 0.1671,-0.1929 0.2947,-0.4168 0.4421,-0.6252 0.2224,-0.4995 0.3392,-0.6411 0.3794,-1.1875 0.1119,-1.5222 -1.9393,-4.0466 -2.3173,-4.6647 -0.1258,-0.1018 -0.2316,-0.235 -0.3773,-0.3057 -0.1962,-0.095 -0.4139,-0.1429 -0.6285,-0.182 -0.8366,-0.1524 -1.6228,-0.012 -2.3779,0.3764 -0.261,0.1344 -0.4941,0.317 -0.7412,0.4755 -0.2266,0.2172 -0.4739,0.4146 -0.6797,0.6516 -0.779,0.8971 -1.2696,2.0894 -1.3776,3.2707 -0.023,0.2496 -0.01,0.5013 -0.01,0.7519 0.027,0.2134 -0.017,0.4491 0.081,0.6402 0.6382,1.235 1.3338,2.4439 2.1086,3.598 0.1962,0.2923 0.5081,0.4887 0.7827,0.7088 0.5511,0.4421 1.2971,0.9331 1.9524,1.1996 0.3787,0.154 0.7834,0.2338 1.1752,0.3507 0.9434,0.115 1.5406,0.2366 2.4883,0.167 1.2927,-0.095 2.5019,-0.5568 3.671,-1.0784 0.092,-0.036 0.9167,-0.3764 1.0762,-0.3843 0.105,-0.01 0.23,0.03 0.2941,0.114 0.073,0.094 0.1343,0.4454 0.063,0.3503 -0.5864,-0.7845 -0.9305,-1.7588 -1.6291,-2.4451 -0.1654,-0.1625 -0.1162,0.449 -0.1743,0.6735 -0.146,0.2502 -0.2569,0.5245 -0.438,0.7506 -0.5381,0.6715 -1.2043,1.109 -1.9346,1.5525 -1.1979,0.7275 -2.4886,1.3153 -3.7331,1.9576 -0.4887,0.3531 -1.4316,0.6383 -1.5507,1.3576 -0.027,0.1643 -0.017,0.3508 0.066,0.4953 1.9309,3.3685 1.1414,2.6764 2.9393,3.9057 1.9471,1.2421 3.9794,2.3485 6.0526,3.3644 0,0 -1.3925,-3.0361 -1.3925,-3.0361 v 0 c -2.0638,-1.0063 -4.102,-2.0838 -5.9962,-3.387 -0.2513,-0.2003 -0.8392,-0.9106 -0.7539,-0.6008 0.2416,0.8769 0.857,1.6051 1.2559,2.4226 0.064,0.1307 -0.2114,-0.218 -0.2489,-0.3586 -0.033,-0.1231 -0.017,-0.2721 0.052,-0.3788 0.1861,-0.2844 1.0345,-0.7923 1.2312,-0.9223 2.2383,-1.2228 -0.1769,0.085 2.3756,-1.2574 1.2137,-0.6386 2.5345,-1.2605 3.4609,-2.3107 0.2063,-0.2337 0.3453,-0.5191 0.5179,-0.7787 0.092,-0.2377 0.3547,-0.4707 0.2762,-0.7133 -0.3932,-1.2142 -1.0353,-2.3352 -1.6293,-3.4648 -0.061,-0.1164 -0.1919,-0.1933 -0.3164,-0.2353 -0.5251,-0.1771 -1.0661,0.2631 -1.5306,0.4079 -0.5408,0.2538 -0.904,0.4428 -1.4841,0.6307 -1.5027,0.4865 -2.8837,0.5512 -4.4319,0.215 -0.3729,-0.1272 -0.7595,-0.2196 -1.1186,-0.3816 -0.6134,-0.2766 -1.3736,-0.7982 -1.8768,-1.2479 -0.2614,-0.2338 -0.8308,-1.0945 -0.729,-0.7588 0.2418,0.7971 0.7792,1.4725 1.1687,2.2089 -0.042,-0.2076 -0.083,-0.415 -0.1251,-0.6225 -0.014,-0.2419 -0.051,-0.4834 -0.044,-0.7257 0.033,-1.1211 0.4638,-2.2977 1.1861,-3.1584 0.1876,-0.2236 0.4181,-0.4075 0.6272,-0.6112 0.2277,-0.1468 0.4413,-0.3184 0.6833,-0.4405 0.8195,-0.4133 1.8944,-0.539 2.6907,0.01 0.1283,0.088 0.2183,0.2222 0.3274,0.3334 -0.4836,-0.8547 -0.9767,-1.7041 -1.451,-2.564 -0.071,-0.1294 0.1736,0.2406 0.2417,0.3717 0.1349,0.2597 0.2676,0.6544 0.2846,0.9463 0.029,0.4987 -0.078,0.6504 -0.2422,1.1182 -0.1263,0.2013 -0.2312,0.4178 -0.3789,0.604 -1.1853,1.4937 -3.1072,1.9405 -4.8984,2.2003 -0.5274,0.042 -1.0535,0.1073 -1.5823,0.1252 -2.5299,0.086 -5.0463,-0.3164 -7.4945,-0.9218 -1.1681,-0.3253 -0.6521,-0.1671 -1.7421,-0.524 -0.1899,-0.062 -0.6117,-0.3829 -0.5694,-0.1875 0.675,3.1158 0.3322,2.8495 2.0051,3.2329 1.8983,0.3381 4.4191,0.7102 6.2781,0.093 0.3769,-0.1251 0.7116,-0.3528 1.0674,-0.5292 0.2551,-0.253 0.5478,-0.4729 0.7654,-0.7588 0.6929,-0.91 0.9307,-1.932 0.8181,-3.0533 -0.036,-0.3601 -0.043,-0.7407 -0.1985,-1.0673 -0.6251,-1.3108 -1.4164,-2.5357 -2.1246,-3.8035 -0.5928,-0.7634 -0.7255,-1.088 -1.5937,-1.5812 -1.8568,-1.0549 -4.0767,-0.463 -6.0605,-0.2688 -2.4348,0.2865 -4.8838,0.4972 -7.3046,0.8923 -1.5279,0.2495 -3.8334,0.6671 -5.2726,1.2299 -0.8182,0.3201 -1.5595,0.81 -2.3391,1.215 -2.0451,1.5207 -2.6462,1.6888 -4.0711,3.885 -1.966,3.03 -2.5613,6.2598 -2.5833,9.8205 -0.01,1.2774 0.1428,2.551 0.2142,3.8264 0.9904,4.8991 0.4304,3.6128 3.4036,9.1533 0.7583,1.4133 2.1101,3.0405 3.7006,3.5722 0.3307,0.1106 0.6876,0.1164 1.0315,0.1746 0.8764,0 1.1447,0.092 1.958,-0.2566 1.5784,-0.6759 2.4696,-2.3375 3.4088,-3.6611 0.3337,-0.565 0.6907,-1.1168 1.0011,-1.6949 0.6066,-1.1295 1.5421,-3.184 2.024,-4.33 1.0875,-2.5865 2.0305,-5.238 2.6212,-7.9862 0.344,-2.1338 0.6518,-3.3243 0.5553,-5.4845 -0.06,-1.3239 -0.4855,-3.2208 -0.8471,-4.5037 -0.1816,-0.6446 -0.3431,-1.3019 -0.6242,-1.9098 -0.7042,-1.5236 -1.549,-2.9781 -2.3235,-4.4671 -0.635,-1.0294 -0.7634,-1.4699 -1.6774,-2.1912 -0.7904,-0.6237 -1.8106,-0.6115 -2.7332,-0.8862 -0.6643,-0.2335 -1.2852,-0.5158 -1.9285,-0.7987 -0.188,-0.083 -0.6129,-0.4321 -0.5712,-0.231 0.5269,2.5404 0.4415,2.3876 1.4193,3.3194 0.9092,0.7639 1.8169,1.529 2.6439,2.3839 0.2989,0.309 0.9343,1.3801 0.8654,0.9559 -0.1215,-0.7493 -0.6902,-1.3522 -1.0391,-2.0264 -0.1145,-0.2214 0.2241,0.4452 0.3362,0.6678 0.041,0.1913 0.124,0.3781 0.1234,0.5738 0,0.372 -0.1917,0.7024 -0.5112,0.895 -0.8619,0.5181 -1.9161,0.1992 -2.8083,0 -0.4316,-0.165 -0.8752,-0.3014 -1.2947,-0.495 -0.7893,-0.3643 -1.9424,-1.0507 -2.6273,-1.5834 -0.3478,-0.2704 -1.0359,-1.3308 -0.9729,-0.8948 0.094,0.65 1.6626,3.401 1.0039,1.6953 0.071,-0.1647 0.1188,-0.3417 0.2137,-0.4939 0.5003,-0.8022 1.5904,-1.4743 2.4051,-1.9174 z" /></g><path
       id="rect1"
       style="opacity:1;fill:#333333;stroke:#000000;stroke-width:0"
       d="m 482.03583,526.22335 c -0.51823,5.47313 3.05031,9.86137 8.00718,9.72122 l 47.50156,-1.34431 c 4.92131,-0.13888 8.6934,-4.71334 8.46498,-10.1439 z" /><path
       id="rect1-4"
       style="display:inline;fill:#0c0a13;stroke:#000000;stroke-width:0"
       d="m 495.08776,464.44324 c -3.78685,0.10538 -6.99885,1.78717 -7.20383,3.8027 l -0.62178,6.10249 -0.47865,0.0145 c -0.49583,0.014 -0.91723,0.24185 -0.94586,0.51016 l -0.53934,5.00317 c -0.0275,0.25002 0.27254,0.44714 0.69508,0.47809 -0.43171,0.057 -0.77638,0.27317 -0.80387,0.52434 l -0.56796,5.27148 c -0.0321,0.298 0.36185,0.52513 0.88286,0.50953 l 0.505,-0.0149 -4.00671,39.34195 c -0.33321,3.26708 3.38492,5.82447 8.33862,5.6638 l 47.47125,-1.54031 c 4.9182,-0.15935 8.53672,-2.94197 8.12448,-6.17207 l -5.17814,-40.58464 0.71683,-0.0217 c 0.51416,-0.0146 0.89662,-0.26074 0.85768,-0.55036 l -1.01456,-7.5406 c -0.0366,-0.27124 -0.4649,-0.47757 -0.96074,-0.46356 l -0.69049,0.0201 -1.01799,-7.97698 c -0.25421,-1.99595 -3.48569,-3.49235 -7.25077,-3.38751 z" /></g></svg>
