<?xml version="1.0" encoding="UTF-8" standalone="no"?>
<!-- Created with Inkscape (http://www.inkscape.org/) -->

<svg
   width="313.93549"
   height="132.66663"
   viewBox="0 0 313.93548 132.66663"
   version="1.1"
   id="svg1"
   xml:space="preserve"
   xmlns="http://www.w3.org/2000/svg"
   xmlns:svg="http://www.w3.org/2000/svg"><defs
     id="defs1" /><g
     id="layer12"
     transform="translate(-8.0751278,-81.067466)"><path
       style="display:inline;fill:#003380;fill-opacity:1;stroke:#000000;stroke-width:0;stroke-dasharray:none;stroke-opacity:1"
       d="m 17.18007,194.84839 -9.10496,17.08621 149.19609,-4.36728 0.71656,0.41018 15.71247,0.32223 0.5655,-0.46132 144.8147,5.89569 -1.83644,-3.91368 -139.31318,-43.14408 z"
       id="path156" /><path
       style="display:inline;fill:#bfbfbf;fill-opacity:1;stroke:#000000;stroke-width:0;stroke-dasharray:none;stroke-opacity:1"
       d="m 10.26262,204.24761 1.98882,4.64717 c 0,0 120.8897,-2.70306 154.00797,-3.43514 0.50122,-0.0111 -2.68509,-28.77639 -2.68509,-28.77639 L 39.13464,186.70993 Z"
       id="path155" /><path
       id="rect154"
       style="display:inline;fill:#e6e6e6;stroke:#000000;stroke-width:0"
       d="m 70.60802,93.93417 c 0,0 113.55604,-30.53976 109.45107,2.48187 l -13.71503,110.3277 c 2.33417,-18.77643 -156.01322,-1.65278 -156.01322,-1.65278 z" /><path
       style="display:inline;fill:#bfbfbf;fill-opacity:1;stroke:#000000;stroke-width:0;stroke-dasharray:none;stroke-opacity:1"
       d="m 322.01061,208.13453 -3.06493,4.00934 c 0,0 -119.96301,-4.75145 -152.82937,-6.0458 -0.49741,-0.0196 9.37231,-25.01769 9.37231,-25.01769 l 121.80068,11.20241 z"
       id="path155-5" /><path
       id="rect154-1"
       style="display:inline;fill:#ebebeb;fill-opacity:1;stroke:#000000;stroke-width:0"
       d="m 289.28692,96.25084 c 0,0 -105.67444,-32.86226 -109.77941,0.15936 l -13.71503,110.32771 c 2.33413,-18.77643 156.01323,1.65279 156.01323,1.65279 z" /></g></svg>
