<?xml version="1.0" encoding="UTF-8" standalone="no"?>
<!-- Created with Inkscape (http://www.inkscape.org/) -->

<svg
   width="447.76306"
   height="245.22475"
   viewBox="0 0 447.76305 245.22475"
   version="1.1"
   id="svg1"
   xml:space="preserve"
   xmlns="http://www.w3.org/2000/svg"
   xmlns:svg="http://www.w3.org/2000/svg"><defs
     id="defs1" /><g
     id="layer3"
     transform="translate(-292.05151,-215.45969)"><g
       id="g142"
       transform="matrix(1,0,0,-1,-600,2186.63)"
       style="display:inline"><path
         id="rect32"
         style="opacity:1;fill:#1a1a1a;stroke:#000000;stroke-width:0"
         d="m 1014.72,1970.6 321.92,-138.24 c 3.52,-1.51 4.22,-4.7 1.56,-7.16 l -104.61,-96.42 c -3.09,-2.85 -8.52,-3.69 -12.14,-1.88 l -327.697,163.36 c -2.636,1.32 -2.154,4.09 1.063,6.22 l 110.074,72.77 c 2.84,1.88 7.21,2.48 9.83,1.35 z" /><path
         id="rect33"
         style="opacity:1;fill:#1a1a1a;stroke:#343434;stroke-width:2"
         d="m 1014.34,1948.34 8.92,-3.93 c 1.35,-0.6 1.28,-1.87 -0.16,-2.86 l -9.64,-6.59 c -1.46,-1 -3.73,-1.32 -5.08,-0.71 l -8.939,4.01 c -1.341,0.6 -1.238,1.88 0.226,2.87 l 9.643,6.51 c 1.45,0.98 3.69,1.29 5.03,0.7 z" /><path
         id="rect33-3"
         style="display:inline;fill:#1a1a1a;stroke:#343434;stroke-width:2"
         d="m 992.191,1920.12 9.049,-4.16 c 1.38,-0.63 1.28,-1.97 -0.22,-3.01 l -10.017,-6.93 c -1.52,-1.05 -3.852,-1.38 -5.226,-0.74 l -9.063,4.25 c -1.359,0.63 -1.225,1.98 0.296,3.02 l 10.023,6.85 c 1.502,1.02 3.8,1.34 5.158,0.72 z" /><path
         id="rect33-3-2"
         style="display:inline;fill:#1a1a1a;stroke:#343434;stroke-width:2"
         d="m 978.724,1906.39 9.1,-4.28 c 1.38,-0.64 1.262,-2.02 -0.268,-3.08 l -10.213,-7.1 c -1.55,-1.07 -3.912,-1.41 -5.293,-0.75 l -9.109,4.36 c -1.366,0.65 -1.214,2.04 0.337,3.1 l 10.223,7.01 c 1.531,1.05 3.859,1.38 5.223,0.74 z" /><path
         id="rect33-3-2-5"
         style="display:inline;fill:#1a1a1a;stroke:#343434;stroke-width:2"
         d="m 994.543,1898.96 9.247,-4.34 c 1.4,-0.65 1.3,-2.05 -0.23,-3.13 l -10.197,-7.19 c -1.548,-1.1 -3.928,-1.44 -5.33,-0.77 l -9.256,4.43 c -1.388,0.67 -1.255,2.07 0.295,3.15 l 10.212,7.11 c 1.529,1.06 3.873,1.39 5.259,0.74 z" /><path
         id="rect33-3-1"
         style="display:inline;fill:#1a1a1a;stroke:#343434;stroke-width:2"
         d="m 1007.93,1912.89 9.19,-4.22 c 1.4,-0.64 1.31,-2 -0.18,-3.05 l -10,-7.03 c -1.52,-1.07 -3.87,-1.4 -5.26,-0.75 l -9.211,4.31 c -1.381,0.65 -1.266,2.02 0.253,3.07 l 10.008,6.94 c 1.5,1.04 3.82,1.37 5.2,0.73 z" /><path
         id="rect87"
         style="opacity:1;fill:#1a1a1a;stroke:#343434;stroke-width:2"
         d="m 1005.34,1933.54 9.01,-4.05 c 1.36,-0.62 1.28,-1.93 -0.19,-2.94 l -9.82,-6.77 c -1.49,-1.03 -3.79,-1.35 -5.16,-0.73 l -9.016,4.14 c -1.352,0.61 -1.237,1.93 0.255,2.95 l 9.831,6.69 c 1.47,1 3.74,1.31 5.09,0.71 z" /><path
         id="rect87-7"
         style="display:inline;fill:#1a1a1a;stroke:#343434;stroke-width:2"
         d="m 1021,1926.5 9.14,-4.12 c 1.39,-0.62 1.32,-1.95 -0.15,-2.98 l -9.8,-6.86 c -1.49,-1.04 -3.81,-1.37 -5.2,-0.73 l -9.15,4.19 c -1.38,0.63 -1.28,1.97 0.21,3 l 9.82,6.78 c 1.47,1.01 3.75,1.33 5.13,0.72 z" /><path
         id="rect88"
         style="opacity:1;fill:#1a1a1a;stroke:#343434;stroke-width:2"
         d="m 1029.85,1941.51 9.06,-3.99 c 1.37,-0.61 1.32,-1.9 -0.12,-2.9 l -9.63,-6.68 c -1.46,-1.02 -3.74,-1.34 -5.12,-0.72 l -9.07,4.07 c -1.36,0.61 -1.28,1.91 0.19,2.91 l 9.63,6.6 c 1.44,0.99 3.7,1.31 5.06,0.71 z" /><path
         id="rect89"
         style="opacity:1;fill:#1a1a1a;stroke:#343434;stroke-width:2"
         d="m 1045.59,1934.57 9.2,-4.05 c 1.4,-0.61 1.37,-1.92 -0.07,-2.94 l -9.61,-6.78 c -1.46,-1.02 -3.76,-1.35 -5.15,-0.72 l -9.22,4.13 c -1.38,0.62 -1.31,1.94 0.15,2.96 l 9.62,6.69 c 1.44,1 3.7,1.32 5.08,0.71 z" /><path
         id="rect90"
         style="opacity:1;fill:#1a1a1a;stroke:#343434;stroke-width:2"
         d="m 1061.59,1927.53 9.34,-4.12 c 1.41,-0.62 1.4,-1.95 -0.03,-2.98 l -9.59,-6.87 c -1.46,-1.04 -3.77,-1.37 -5.19,-0.73 l -9.36,4.2 c -1.4,0.63 -1.36,1.96 0.1,2.99 l 9.6,6.79 c 1.44,1.02 3.72,1.34 5.13,0.72 z" /><path
         id="rect91"
         style="opacity:1;fill:#1a1a1a;stroke:#343434;stroke-width:2"
         d="m 1077.83,1920.38 9.49,-4.18 c 1.43,-0.64 1.44,-1.99 0.01,-3.03 l -9.57,-6.97 c -1.45,-1.05 -3.78,-1.39 -5.22,-0.74 l -9.51,4.27 c -1.43,0.64 -1.4,1.99 0.05,3.04 l 9.59,6.88 c 1.44,1.03 3.73,1.35 5.16,0.73 z" /><path
         id="rect92"
         style="opacity:1;fill:#1a1a1a;stroke:#343434;stroke-width:2"
         d="m 1094.32,1913.11 9.64,-4.25 c 1.46,-0.64 1.49,-2.01 0.06,-3.07 l -9.54,-7.06 c -1.45,-1.08 -3.8,-1.41 -5.27,-0.75 l -9.65,4.33 c -1.45,0.65 -1.45,2.03 0,3.09 l 9.57,6.97 c 1.43,1.05 3.75,1.38 5.19,0.74 z" /><path
         id="rect93"
         style="opacity:1;fill:#1a1a1a;stroke:#343434;stroke-width:2"
         d="m 1111.08,1905.73 9.79,-4.31 c 1.49,-0.66 1.54,-2.05 0.11,-3.12 l -9.52,-7.17 c -1.45,-1.09 -3.81,-1.42 -5.3,-0.76 l -9.81,4.41 c -1.47,0.66 -1.49,2.05 -0.04,3.13 l 9.54,7.08 c 1.43,1.05 3.76,1.39 5.23,0.74 z" /><path
         id="rect94"
         style="opacity:1;fill:#1a1a1a;stroke:#343434;stroke-width:2"
         d="m 1128.11,1898.23 9.95,-4.38 c 1.51,-0.67 1.58,-2.08 0.16,-3.17 l -9.5,-7.27 c -1.44,-1.1 -3.83,-1.44 -5.34,-0.76 l -9.97,4.47 c -1.5,0.67 -1.53,2.09 -0.09,3.18 l 9.52,7.18 c 1.43,1.07 3.77,1.41 5.27,0.75 z" /><path
         id="rect95"
         style="opacity:1;fill:#1a1a1a;stroke:#343434;stroke-width:2"
         d="m 1145.41,1890.61 10.11,-4.45 c 1.53,-0.68 1.63,-2.11 0.21,-3.21 l -9.47,-7.38 c -1.44,-1.12 -3.84,-1.47 -5.37,-0.78 l -10.14,4.55 c -1.52,0.68 -1.58,2.12 -0.14,3.23 l 9.5,7.28 c 1.42,1.09 3.78,1.43 5.3,0.76 z" /><path
         id="rect96"
         style="opacity:1;fill:#1a1a1a;stroke:#343434;stroke-width:2"
         d="m 1162.99,1882.87 10.27,-4.53 c 1.56,-0.68 1.68,-2.14 0.27,-3.26 l -9.44,-7.48 c -1.44,-1.14 -3.85,-1.49 -5.41,-0.79 l -10.31,4.62 c -1.54,0.7 -1.63,2.16 -0.19,3.28 l 9.47,7.39 c 1.42,1.1 3.79,1.45 5.34,0.77 z" /><path
         id="rect97"
         style="opacity:1;fill:#1a1a1a;stroke:#343434;stroke-width:2"
         d="m 1180.85,1875 10.45,-4.6 c 1.58,-0.7 1.73,-2.18 0.32,-3.31 l -9.41,-7.6 c -1.43,-1.15 -3.86,-1.51 -5.45,-0.79 l -10.47,4.7 c -1.57,0.7 -1.68,2.18 -0.25,3.32 l 9.44,7.5 c 1.41,1.12 3.81,1.47 5.37,0.78 z" /><path
         id="rect98"
         style="opacity:1;fill:#1a1a1a;stroke:#343434;stroke-width:2"
         d="m 1199.02,1867 10.62,-4.68 c 1.61,-0.71 1.78,-2.21 0.37,-3.36 l -9.37,-7.71 c -1.43,-1.17 -3.87,-1.53 -5.49,-0.81 l -10.65,4.78 c -1.6,0.72 -1.73,2.23 -0.3,3.38 l 9.4,7.61 c 1.41,1.14 3.82,1.49 5.42,0.79 z" /><path
         id="rect98-9"
         style="display:inline;fill:#1a1a1a;stroke:#343434;stroke-width:2.00001"
         d="m 1217.48,1858.87 29.76,-13.11 c 1.66,-0.73 1.89,-2.28 0.49,-3.47 l -9.3,-7.94 c -1.41,-1.21 -3.89,-1.58 -5.56,-0.83 l -29.85,13.39 c -1.63,0.73 -1.78,2.26 -0.36,3.44 l 9.37,7.72 c 1.4,1.15 3.83,1.51 5.45,0.8 z" /><path
         id="rect98-9-4"
         style="display:inline;fill:#1a1a1a;stroke:#343434;stroke-width:2.00001"
         d="m 1260.92,1839.73 11.23,-4.94 c 1.7,-0.75 1.96,-2.33 0.57,-3.54 l -9.24,-8.1 c -1.41,-1.23 -3.91,-1.61 -5.62,-0.84 l -11.26,5.05 c -1.69,0.76 -1.91,2.35 -0.5,3.56 l 9.28,7.99 c 1.39,1.2 3.86,1.56 5.54,0.82 z" /><path
         id="rect98-9-4-2"
         style="display:inline;fill:#1a1a1a;stroke:#343434;stroke-width:2.00001"
         d="m 1280.44,1831.14 11.41,-5.03 c 1.73,-0.76 2.02,-2.37 0.64,-3.6 l -9.19,-8.23 c -1.4,-1.25 -3.93,-1.62 -5.66,-0.85 l -11.46,5.15 c -1.72,0.77 -1.97,2.38 -0.56,3.61 l 9.23,8.12 c 1.39,1.21 3.87,1.58 5.59,0.83 z" /><path
         id="rect107"
         style="opacity:1;fill:#1a1a1a;stroke:#343434;stroke-width:2"
         d="m 999.06,1955.07 8.79,-3.87 c 1.33,-0.59 1.24,-1.84 -0.2,-2.82 l -9.652,-6.51 c -1.464,-0.98 -3.719,-1.3 -5.053,-0.7 l -8.8,3.95 c -1.319,0.59 -1.199,1.85 0.266,2.83 l 9.66,6.43 c 1.447,0.96 3.67,1.27 4.989,0.69 z" /><path
         id="rect107-8"
         style="display:inline;fill:#1a1a1a;stroke:#343434;stroke-width:1.49999"
         d="m 1010.23,1963.83 11.17,-4.85 c 0.66,-0.29 0.62,-0.91 -0.09,-1.39 l -3.84,-2.59 c -0.71,-0.48 -1.83,-0.63 -2.49,-0.34 l -11.18,4.89 c -0.66,0.28 -0.61,0.9 0.11,1.38 l 3.84,2.56 c 0.71,0.47 1.82,0.62 2.48,0.34 z" /><path
         id="rect107-8-5"
         style="display:inline;fill:#1a1a1a;stroke:#343434;stroke-width:1.49999"
         d="m 1033.18,1953.87 11.42,-4.95 c 0.68,-0.3 0.66,-0.93 -0.05,-1.42 l -3.84,-2.64 c -0.71,-0.49 -1.83,-0.65 -2.51,-0.35 l -11.44,5 c -0.67,0.29 -0.64,0.92 0.08,1.41 l 3.84,2.61 c 0.71,0.48 1.82,0.63 2.5,0.34 z" /><path
         id="rect107-8-5-3"
         style="display:inline;fill:#1a1a1a;stroke:#343434;stroke-width:1.49999"
         d="m 1048.77,1947.11 11.59,-5.03 c 0.7,-0.3 0.68,-0.94 -0.03,-1.44 l -3.82,-2.67 c -0.72,-0.5 -1.85,-0.66 -2.54,-0.36 l -11.61,5.08 c -0.68,0.29 -0.65,0.93 0.06,1.42 l 3.83,2.65 c 0.71,0.49 1.83,0.65 2.52,0.35 z" /><path
         id="rect107-2"
         style="display:inline;fill:#1a1a1a;stroke:#343434;stroke-width:2"
         d="m 982.309,1943.89 16.488,-7.41 c 1.343,-0.6 1.243,-1.9 -0.229,-2.9 l -9.833,-6.67 c -1.492,-1.02 -3.779,-1.34 -5.124,-0.72 l -16.506,7.56 c -1.322,0.61 -1.179,1.9 0.315,2.89 l 9.847,6.56 c 1.475,0.98 3.722,1.29 5.042,0.69 z" /><path
         id="rect107-2-89"
         style="display:inline;fill:#1a1a1a;stroke:#343434;stroke-width:2"
         d="m 1210.62,1841.22 20.48,-9.21 c 1.67,-0.75 1.87,-2.33 0.45,-3.55 l -9.5,-8.11 c -1.45,-1.24 -3.96,-1.61 -5.64,-0.84 l -20.54,9.41 c -1.64,0.75 -1.8,2.33 -0.34,3.54 l 9.55,7.95 c 1.43,1.19 3.9,1.55 5.54,0.81 z" /><path
         id="rect107-2-8"
         style="display:inline;fill:#1a1a1a;stroke:#343434;stroke-width:2"
         d="m 965.233,1932.5 20.378,-9.36 c 1.351,-0.62 1.233,-1.94 -0.269,-2.96 l -10.024,-6.84 c -1.522,-1.04 -3.838,-1.36 -5.19,-0.73 l -20.398,9.55 c -1.323,0.62 -1.158,1.94 0.365,2.95 l 10.041,6.68 c 1.504,1 3.775,1.32 5.097,0.71 z" /><path
         id="rect107-2-8-5"
         style="display:inline;fill:#1a1a1a;stroke:#343434;stroke-width:2.00001"
         d="m 947.821,1920.89 24.29,-11.4 c 1.358,-0.64 1.221,-1.99 -0.31,-3.04 l -10.223,-7 c -1.552,-1.06 -3.898,-1.39 -5.257,-0.74 l -24.311,11.63 c -1.324,0.63 -1.135,1.98 0.418,3.01 l 10.24,6.82 c 1.534,1.02 3.83,1.34 5.153,0.72 z" /><path
         id="rect107-2-8-5-2"
         style="display:inline;fill:#1a1a1a;stroke:#343434;stroke-width:2.00001"
         d="m 930.063,1909.04 16.541,-7.93 c 1.348,-0.65 1.179,-2.02 -0.384,-3.08 l -10.435,-7.09 c -1.584,-1.08 -3.949,-1.41 -5.298,-0.75 l -16.552,8.09 c -1.324,0.65 -1.112,2.02 0.474,3.08 l 10.444,6.95 c 1.564,1.04 3.886,1.37 5.21,0.73 z" /><path
         id="rect107-2-8-5-2-1"
         style="display:inline;fill:#1a1a1a;stroke:#343434;stroke-width:2.00001"
         d="m 953.172,1897.96 9.039,-4.34 c 1.37,-0.65 1.219,-2.05 -0.342,-3.13 l -10.427,-7.19 c -1.582,-1.09 -3.964,-1.43 -5.335,-0.76 l -9.046,4.43 c -1.357,0.66 -1.171,2.07 0.413,3.14 l 10.435,7.1 c 1.562,1.07 3.908,1.4 5.263,0.75 z" /><path
         id="rect107-2-8-5-2-1-0"
         style="display:inline;fill:#1a1a1a;stroke:#343434;stroke-width:2.00001"
         d="m 968.885,1890.42 9.184,-4.4 c 1.392,-0.67 1.26,-2.09 -0.3,-3.18 l -10.417,-7.29 c -1.581,-1.11 -3.979,-1.45 -5.372,-0.77 l -9.193,4.5 c -1.378,0.67 -1.211,2.09 0.372,3.19 l 10.426,7.2 c 1.561,1.08 3.923,1.41 5.3,0.75 z" /><path
         id="rect107-2-8-5-2-1-0-9"
         style="display:inline;fill:#1a1a1a;stroke:#343434;stroke-width:2.00001"
         d="m 984.85,1882.76 107.25,-51.44 c 1.56,-0.74 1.57,-2.31 0.03,-3.52 l -10.3,-8.06 c -1.56,-1.22 -4.08,-1.59 -5.64,-0.83 l -107.422,52.55 c -1.401,0.68 -1.252,2.13 0.329,3.24 l 10.415,7.3 c 1.56,1.1 3.939,1.44 5.338,0.76 z" /><path
         id="rect108"
         style="display:inline;fill:#1a1a1a;stroke:#343434;stroke-width:2"
         d="m 1036.89,1919.35 9.29,-4.18 c 1.41,-0.63 1.36,-1.98 -0.1,-3.02 l -9.79,-6.96 c -1.49,-1.06 -3.82,-1.39 -5.23,-0.74 l -9.3,4.26 c -1.4,0.64 -1.32,1.99 0.17,3.04 l 9.8,6.87 c 1.47,1.03 3.77,1.36 5.16,0.73 z" /><path
         id="rect109"
         style="display:inline;fill:#1a1a1a;stroke:#343434;stroke-width:2"
         d="m 1053.04,1912.09 9.43,-4.25 c 1.43,-0.64 1.41,-2.01 -0.06,-3.06 l -9.77,-7.06 c -1.48,-1.07 -3.83,-1.41 -5.26,-0.75 l -9.45,4.33 c -1.42,0.65 -1.36,2.02 0.12,3.08 l 9.79,6.97 c 1.47,1.05 3.78,1.37 5.2,0.74 z" /><path
         id="rect110"
         style="display:inline;fill:#1a1a1a;stroke:#343434;stroke-width:2"
         d="m 1069.44,1904.71 9.58,-4.31 c 1.46,-0.65 1.45,-2.04 -0.01,-3.11 l -9.75,-7.16 c -1.48,-1.09 -3.85,-1.43 -5.3,-0.76 l -9.61,4.4 c -1.44,0.66 -1.4,2.06 0.09,3.13 l 9.77,7.07 c 1.46,1.06 3.79,1.39 5.23,0.74 z" /><path
         id="rect111"
         style="display:inline;fill:#1a1a1a;stroke:#343434;stroke-width:2"
         d="m 1086.1,1897.22 9.74,-4.38 c 1.48,-0.66 1.49,-2.07 0.04,-3.16 l -9.74,-7.26 c -1.47,-1.11 -3.86,-1.45 -5.33,-0.77 l -9.76,4.47 c -1.47,0.67 -1.45,2.09 0.03,3.18 l 9.75,7.17 c 1.46,1.07 3.81,1.41 5.27,0.75 z" /><path
         id="rect112"
         style="display:inline;fill:#1a1a1a;stroke:#343434;stroke-width:2"
         d="m 1103.03,1889.61 9.9,-4.46 c 1.5,-0.67 1.54,-2.1 0.08,-3.2 l -9.7,-7.37 c -1.48,-1.12 -3.88,-1.47 -5.38,-0.78 l -9.92,4.55 c -1.49,0.68 -1.49,2.12 -0.01,3.22 l 9.73,7.27 c 1.45,1.09 3.82,1.43 5.3,0.77 z" /><path
         id="rect113"
         style="display:inline;fill:#1a1a1a;stroke:#343434;stroke-width:2"
         d="m 1120.24,1881.87 10.05,-4.52 c 1.53,-0.69 1.59,-2.14 0.14,-3.26 l -9.68,-7.48 c -1.47,-1.13 -3.89,-1.48 -5.42,-0.78 l -10.08,4.62 c -1.51,0.69 -1.54,2.15 -0.06,3.27 l 9.7,7.38 c 1.46,1.1 3.84,1.45 5.35,0.77 z" /><path
         id="rect114"
         style="display:inline;fill:#1a1a1a;stroke:#343434;stroke-width:2"
         d="m 1137.72,1874 10.22,-4.59 c 1.55,-0.7 1.64,-2.17 0.2,-3.31 l -9.66,-7.59 c -1.47,-1.15 -3.9,-1.5 -5.45,-0.79 l -10.25,4.69 c -1.54,0.71 -1.59,2.19 -0.12,3.33 l 9.68,7.49 c 1.45,1.12 3.85,1.46 5.38,0.77 z" /><path
         id="rect115"
         style="display:inline;fill:#1a1a1a;stroke:#343434;stroke-width:2"
         d="m 1155.49,1866.01 10.4,-4.67 c 1.57,-0.71 1.68,-2.21 0.24,-3.36 l -9.62,-7.7 c -1.46,-1.17 -3.92,-1.53 -5.5,-0.8 l -10.41,4.77 c -1.57,0.72 -1.64,2.22 -0.18,3.38 l 9.66,7.59 c 1.44,1.14 3.86,1.49 5.41,0.79 z" /><path
         id="rect116"
         style="display:inline;fill:#1a1a1a;stroke:#343434;stroke-width:2"
         d="m 1173.56,1857.89 10.57,-4.76 c 1.6,-0.72 1.74,-2.24 0.3,-3.41 l -9.59,-7.81 c -1.46,-1.19 -3.93,-1.55 -5.53,-0.82 l -10.6,4.86 c -1.59,0.73 -1.69,2.26 -0.23,3.43 l 9.63,7.71 c 1.44,1.15 3.87,1.51 5.45,0.8 z" /><path
         id="rect117"
         style="display:inline;fill:#1a1a1a;stroke:#343434;stroke-width:2"
         d="m 1191.93,1849.62 10.75,-4.83 c 1.63,-0.73 1.79,-2.27 0.36,-3.46 l -9.56,-7.94 c -1.45,-1.2 -3.94,-1.57 -5.57,-0.82 l -10.78,4.94 c -1.61,0.74 -1.74,2.29 -0.28,3.48 l 9.59,7.83 c 1.43,1.17 3.88,1.53 5.49,0.8 z" /><path
         id="rect118"
         style="display:inline;fill:#1a1a1a;stroke:#343434;stroke-width:2"
         d="m 1023.91,1905.55 9.34,-4.29 c 1.42,-0.65 1.36,-2.03 -0.14,-3.1 l -9.98,-7.13 c -1.52,-1.08 -3.88,-1.41 -5.3,-0.75 l -9.36,4.38 c -1.4,0.66 -1.3,2.04 0.21,3.11 l 10,7.04 c 1.5,1.06 3.83,1.39 5.23,0.74 z" /><path
         id="rect119"
         style="display:inline;fill:#1a1a1a;stroke:#343434;stroke-width:2"
         d="m 1040.15,1898.09 9.49,-4.36 c 1.44,-0.66 1.4,-2.06 -0.1,-3.14 l -9.96,-7.23 c -1.52,-1.1 -3.9,-1.44 -5.34,-0.76 l -9.5,4.45 c -1.43,0.66 -1.35,2.07 0.16,3.16 l 9.98,7.13 c 1.5,1.07 3.84,1.41 5.27,0.75 z" /><path
         id="rect120"
         style="display:inline;fill:#1a1a1a;stroke:#343434;stroke-width:2"
         d="m 1056.65,1890.52 9.64,-4.43 c 1.46,-0.67 1.44,-2.1 -0.05,-3.2 l -9.95,-7.33 c -1.51,-1.11 -3.91,-1.46 -5.37,-0.77 l -9.66,4.52 c -1.45,0.68 -1.39,2.11 0.12,3.21 l 9.97,7.24 c 1.49,1.08 3.85,1.42 5.3,0.76 z" /><path
         id="rect121"
         style="display:inline;fill:#1a1a1a;stroke:#343434;stroke-width:2"
         d="m 1073.41,1882.82 9.8,-4.5 c 1.48,-0.69 1.49,-2.13 0,-3.25 l -9.93,-7.44 c -1.51,-1.13 -3.92,-1.48 -5.41,-0.78 l -9.82,4.6 c -1.47,0.69 -1.44,2.14 0.07,3.25 l 9.95,7.35 c 1.49,1.1 3.87,1.44 5.34,0.77 z" /><path
         id="rect122"
         style="display:inline;fill:#1a1a1a;stroke:#343434;stroke-width:2"
         d="m 1090.45,1874.99 9.96,-4.57 c 1.51,-0.7 1.53,-2.16 0.05,-3.29 l -9.91,-7.56 c -1.5,-1.14 -3.93,-1.5 -5.45,-0.79 l -9.98,4.68 c -1.49,0.7 -1.48,2.17 0.02,3.3 l 9.93,7.46 c 1.49,1.11 3.88,1.46 5.38,0.77 z" /><path
         id="rect123"
         style="display:inline;fill:#1a1a1a;stroke:#343434;stroke-width:2"
         d="m 1107.76,1867.04 10.13,-4.65 c 1.53,-0.71 1.58,-2.2 0.1,-3.34 l -9.88,-7.67 c -1.5,-1.16 -3.95,-1.52 -5.49,-0.8 l -10.15,4.75 c -1.52,0.71 -1.53,2.21 -0.02,3.36 l 9.9,7.56 c 1.48,1.14 3.89,1.48 5.41,0.79 z" /><path
         id="rect124"
         style="display:inline;fill:#1a1a1a;stroke:#343434;stroke-width:2"
         d="m 1125.36,1858.95 10.3,-4.73 c 1.56,-0.71 1.63,-2.23 0.16,-3.39 l -9.86,-7.78 c -1.5,-1.18 -3.96,-1.54 -5.53,-0.81 l -10.31,4.83 c -1.55,0.73 -1.59,2.25 -0.09,3.41 l 9.88,7.68 c 1.48,1.15 3.91,1.5 5.45,0.79 z" /><path
         id="rect125"
         style="display:inline;fill:#1a1a1a;stroke:#343434;stroke-width:2"
         d="m 1143.26,1850.73 10.47,-4.8 c 1.58,-0.73 1.68,-2.27 0.21,-3.45 l -9.83,-7.9 c -1.49,-1.2 -3.97,-1.56 -5.56,-0.82 l -10.5,4.91 c -1.57,0.74 -1.63,2.29 -0.13,3.47 l 9.85,7.79 c 1.47,1.17 3.92,1.52 5.49,0.8 z" /><path
         id="rect126"
         style="display:inline;fill:#1a1a1a;stroke:#343434;stroke-width:2"
         d="m 1161.46,1842.37 10.64,-4.88 c 1.61,-0.74 1.74,-2.31 0.27,-3.51 l -9.79,-8.01 c -1.49,-1.22 -3.99,-1.59 -5.61,-0.83 l -10.67,4.99 c -1.6,0.75 -1.69,2.32 -0.19,3.52 l 9.82,7.91 c 1.47,1.19 3.93,1.55 5.53,0.81 z" /><path
         id="rect126-5"
         style="display:inline;fill:#1a1a1a;stroke:#343434;stroke-width:2"
         d="m 1179.96,1833.87 34.64,-15.9 c 1.68,-0.77 1.86,-2.39 0.41,-3.64 l -9.72,-8.29 c -1.47,-1.26 -4.02,-1.64 -5.7,-0.86 l -34.74,16.27 c -1.62,0.76 -1.73,2.35 -0.25,3.57 l 9.79,8.03 c 1.47,1.2 3.95,1.57 5.57,0.82 z" /><path
         id="rect127"
         style="display:inline;fill:#1a1a1a;stroke:#343434;stroke-width:2"
         d="m 1010.61,1891.42 9.4,-4.41 c 1.42,-0.67 1.34,-2.08 -0.18,-3.18 l -10.19,-7.3 c -1.55,-1.1 -3.94,-1.45 -5.37,-0.77 l -9.403,4.5 c -1.41,0.68 -1.296,2.1 0.252,3.2 l 10.201,7.21 c 1.53,1.08 3.89,1.41 5.29,0.75 z" /><path
         id="rect128"
         style="display:inline;fill:#1a1a1a;stroke:#343434;stroke-width:2"
         d="m 1026.94,1883.76 9.55,-4.48 c 1.45,-0.68 1.39,-2.12 -0.13,-3.23 l -10.18,-7.4 c -1.54,-1.13 -3.95,-1.48 -5.4,-0.78 l -9.56,4.57 c -1.43,0.69 -1.34,2.13 0.21,3.24 l 10.18,7.31 c 1.53,1.1 3.9,1.44 5.33,0.77 z" /><path
         id="rect129"
         style="display:inline;fill:#1a1a1a;stroke:#343434;stroke-width:2"
         d="m 1043.54,1875.97 9.7,-4.55 c 1.47,-0.69 1.43,-2.15 -0.09,-3.28 l -10.15,-7.51 c -1.54,-1.14 -3.97,-1.5 -5.44,-0.79 l -9.72,4.65 c -1.46,0.7 -1.38,2.16 0.16,3.29 l 10.17,7.42 c 1.52,1.11 3.91,1.45 5.37,0.77 z" /><path
         id="rect130"
         style="display:inline;fill:#1a1a1a;stroke:#343434;stroke-width:2"
         d="m 1060.4,1868.06 9.86,-4.63 c 1.5,-0.7 1.48,-2.19 -0.03,-3.33 l -10.14,-7.62 c -1.53,-1.16 -3.98,-1.52 -5.48,-0.8 l -9.88,4.73 c -1.48,0.7 -1.43,2.2 0.11,3.34 l 10.15,7.52 c 1.52,1.13 3.93,1.48 5.41,0.79 z" /><path
         id="rect131"
         style="display:inline;fill:#1a1a1a;stroke:#343434;stroke-width:2"
         d="m 1077.55,1860.01 10.02,-4.7 c 1.52,-0.72 1.53,-2.22 0.01,-3.38 l -10.11,-7.74 c -1.53,-1.18 -4,-1.54 -5.52,-0.81 l -10.04,4.81 c -1.51,0.72 -1.48,2.23 0.06,3.39 l 10.13,7.64 c 1.52,1.14 3.94,1.5 5.45,0.79 z" /><path
         id="rect132"
         style="display:inline;fill:#1a1a1a;stroke:#343434;stroke-width:2"
         d="m 1094.97,1851.83 10.2,-4.78 c 1.54,-0.73 1.57,-2.26 0.06,-3.43 l -10.09,-7.86 c -1.53,-1.19 -4.01,-1.55 -5.56,-0.81 l -10.21,4.88 c -1.53,0.74 -1.53,2.27 0.01,3.45 l 10.11,7.75 c 1.51,1.16 3.96,1.52 5.48,0.8 z" /><path
         id="rect133"
         style="display:inline;fill:#1a1a1a;stroke:#343434;stroke-width:2"
         d="m 1112.69,1843.52 10.37,-4.87 c 1.57,-0.73 1.62,-2.29 0.12,-3.48 l -10.06,-7.98 c -1.53,-1.21 -4.03,-1.58 -5.61,-0.82 l -10.38,4.97 c -1.56,0.74 -1.58,2.3 -0.05,3.5 l 10.09,7.87 c 1.51,1.18 3.97,1.54 5.52,0.81 z" /><path
         id="rect134"
         style="display:inline;fill:#1a1a1a;stroke:#343434;stroke-width:2"
         d="m 1130.71,1835.06 10.54,-4.95 c 1.6,-0.74 1.68,-2.32 0.18,-3.54 l -10.03,-8.09 c -1.53,-1.23 -4.05,-1.61 -5.65,-0.84 l -10.56,5.05 c -1.59,0.76 -1.63,2.35 -0.1,3.56 l 10.06,7.99 c 1.5,1.2 3.98,1.56 5.56,0.82 z" /><path
         id="rect134-1"
         style="display:inline;fill:#1a1a1a;stroke:#343434;stroke-width:2"
         d="m 1149.04,1826.46 48.7,-22.85 c 1.68,-0.79 1.84,-2.45 0.36,-3.72 l -9.93,-8.48 c -1.51,-1.29 -4.09,-1.68 -5.78,-0.87 l -48.83,23.36 c -1.61,0.78 -1.68,2.39 -0.16,3.62 l 10.03,8.11 c 1.5,1.22 4,1.59 5.61,0.83 z" /><path
         id="rect134-1-8"
         style="display:inline;fill:#1a1a1a;stroke:#343434;stroke-width:2"
         d="m 1159.82,1798.85 20.68,-9.92 c 1.69,-0.81 1.83,-2.51 0.31,-3.81 l -10.16,-8.68 c -1.54,-1.31 -4.15,-1.71 -5.84,-0.88 l -20.74,10.15 c -1.66,0.81 -1.75,2.5 -0.2,3.79 l 10.21,8.49 c 1.53,1.27 4.08,1.65 5.74,0.86 z" /><path
         id="rect134-1-8-9"
         style="display:inline;fill:#1a1a1a;stroke:#343434;stroke-width:2"
         d="m 1136.29,1810.13 15.51,-7.44 c 1.65,-0.79 1.75,-2.44 0.22,-3.71 l -10.21,-8.47 c -1.55,-1.29 -4.13,-1.68 -5.78,-0.87 l -15.55,7.6 c -1.62,0.8 -1.67,2.46 -0.11,3.72 l 10.24,8.32 c 1.53,1.25 4.07,1.63 5.68,0.85 z" /><path
         id="rect134-1-8-9-8"
         style="display:inline;fill:#1a1a1a;stroke:#343434;stroke-width:2"
         d="m 1117.84,1818.98 10.61,-5.09 c 1.61,-0.77 1.68,-2.39 0.14,-3.64 l -10.24,-8.31 c -1.56,-1.26 -4.12,-1.64 -5.73,-0.85 l -10.64,5.2 c -1.59,0.78 -1.62,2.41 -0.06,3.66 l 10.28,8.19 c 1.53,1.23 4.05,1.6 5.64,0.84 z" /><path
         id="rect134-1-8-9-8-4"
         style="display:inline;fill:#1a1a1a;stroke:#343434;stroke-width:2"
         d="m 1099.7,1827.68 10.43,-5 c 1.58,-0.76 1.62,-2.36 0.08,-3.58 l -10.27,-8.18 c -1.56,-1.25 -4.1,-1.62 -5.68,-0.85 l -10.46,5.12 c -1.57,0.77 -1.57,2.37 0,3.6 l 10.29,8.07 c 1.55,1.2 4.04,1.57 5.61,0.82 z" /><path
         id="rect134-1-8-9-8-4-6"
         style="display:inline;fill:#1a1a1a;stroke:#343434;stroke-width:2"
         d="m 1214.19,1772.77 11.6,-5.56 c 1.75,-0.85 1.96,-2.61 0.46,-3.95 l -10.07,-9.01 c -1.53,-1.37 -4.18,-1.77 -5.95,-0.91 l -11.63,5.69 c -1.74,0.85 -1.91,2.63 -0.37,3.97 l 10.1,8.88 c 1.51,1.32 4.12,1.72 5.86,0.89 z" /><path
         id="rect134-1-8-9-8-4-6-4"
         style="display:inline;fill:#1a1a1a;stroke:#343434;stroke-width:2"
         d="m 1231.31,1787.85 11.55,-5.42 c 1.75,-0.82 1.98,-2.54 0.51,-3.86 l -9.84,-8.8 c -1.49,-1.33 -4.11,-1.73 -5.87,-0.89 l -11.59,5.54 c -1.74,0.84 -1.92,2.57 -0.42,3.88 l 9.87,8.68 c 1.48,1.3 4.06,1.69 5.79,0.87 z" /><path
         id="rect134-1-8-9-8-4-6-5"
         style="display:inline;fill:#1a1a1a;stroke:#343434;stroke-width:2"
         d="m 1194.38,1782.27 11.39,-5.46 c 1.73,-0.83 1.91,-2.57 0.4,-3.89 l -10.11,-8.86 c -1.54,-1.34 -4.17,-1.75 -5.9,-0.9 l -11.43,5.59 c -1.71,0.84 -1.84,2.58 -0.3,3.91 l 10.14,8.73 c 1.52,1.3 4.11,1.7 5.81,0.88 z" /><path
         id="rect135"
         style="display:inline;fill:#1a1a1a;stroke:#343434;stroke-width:1.49999"
         d="m 1064.59,1940.25 11.78,-5.11 c 0.7,-0.31 0.7,-0.96 -0.01,-1.46 l -3.82,-2.71 c -0.71,-0.51 -1.85,-0.67 -2.55,-0.36 l -11.79,5.15 c -0.69,0.3 -0.67,0.95 0.04,1.45 l 3.82,2.68 c 0.71,0.5 1.84,0.66 2.53,0.36 z" /><path
         id="rect136"
         style="display:inline;fill:#1a1a1a;stroke:#343434;stroke-width:1.49999"
         d="m 1080.67,1933.28 11.96,-5.19 c 0.71,-0.31 0.72,-0.97 0.01,-1.48 l -3.81,-2.75 c -0.71,-0.52 -1.86,-0.68 -2.57,-0.37 l -11.97,5.24 c -0.71,0.31 -0.7,0.96 0.01,1.47 l 3.82,2.72 c 0.71,0.5 1.84,0.66 2.55,0.36 z" /><path
         id="rect136-3"
         style="display:inline;fill:#1a1a1a;stroke:#343434;stroke-width:1.49999"
         d="m 1105.24,1922.62 12.25,-5.31 c 0.73,-0.32 0.75,-0.99 0.05,-1.52 l -3.8,-2.81 c -0.71,-0.52 -1.87,-0.68 -2.6,-0.37 l -12.25,5.36 c -0.72,0.32 -0.73,0.99 -0.02,1.51 l 3.8,2.77 c 0.71,0.52 1.85,0.68 2.57,0.37 z" /><path
         id="rect136-3-4"
         style="display:inline;fill:#1a1a1a;stroke:#343434;stroke-width:1.49999"
         d="m 1121.95,1915.37 12.44,-5.4 c 0.74,-0.32 0.77,-1 0.07,-1.53 l -3.79,-2.85 c -0.7,-0.53 -1.87,-0.7 -2.61,-0.37 l -12.45,5.44 c -0.73,0.32 -0.75,1 -0.04,1.53 l 3.79,2.81 c 0.71,0.52 1.86,0.69 2.59,0.37 z" /><path
         id="rect137"
         style="display:inline;fill:#1a1a1a;stroke:#343434;stroke-width:1.49999"
         d="m 1138.92,1908.01 12.64,-5.48 c 0.75,-0.33 0.8,-1.02 0.1,-1.56 l -3.78,-2.89 c -0.7,-0.54 -1.88,-0.71 -2.63,-0.38 l -12.65,5.53 c -0.74,0.33 -0.78,1.02 -0.07,1.55 l 3.79,2.86 c 0.7,0.52 1.86,0.69 2.6,0.37 z" /><path
         id="rect138"
         style="display:inline;fill:#1a1a1a;stroke:#343434;stroke-width:1.49999"
         d="m 1156.17,1900.53 12.84,-5.57 c 0.76,-0.33 0.82,-1.04 0.12,-1.58 l -3.77,-2.93 c -0.7,-0.55 -1.88,-0.72 -2.65,-0.38 l -12.85,5.62 c -0.75,0.33 -0.8,1.03 -0.09,1.57 l 3.77,2.89 c 0.7,0.54 1.87,0.71 2.63,0.38 z" /><path
         id="rect138-1"
         style="display:inline;fill:#1a1a1a;stroke:#343434;stroke-width:1.49999"
         d="m 1182.56,1889.08 13.15,-5.7 c 0.78,-0.34 0.86,-1.06 0.16,-1.62 l -3.75,-2.99 c -0.69,-0.56 -1.89,-0.73 -2.67,-0.39 l -13.17,5.76 c -0.78,0.34 -0.84,1.05 -0.14,1.6 l 3.76,2.96 c 0.7,0.55 1.88,0.72 2.66,0.38 z" /><path
         id="rect138-1-9"
         style="display:inline;fill:#1a1a1a;stroke:#343434;stroke-width:1.49999"
         d="m 1200.51,1881.3 13.36,-5.8 c 0.8,-0.34 0.89,-1.08 0.2,-1.64 l -3.74,-3.04 c -0.69,-0.57 -1.9,-0.74 -2.69,-0.39 l -13.39,5.85 c -0.79,0.34 -0.86,1.07 -0.16,1.63 l 3.74,3 c 0.7,0.56 1.89,0.73 2.68,0.39 z" /><path
         id="rect139"
         style="display:inline;fill:#1a1a1a;stroke:#343434;stroke-width:1.49999"
         d="m 1218.75,1873.39 13.59,-5.9 c 0.81,-0.35 0.91,-1.09 0.22,-1.66 l -3.72,-3.09 c -0.69,-0.57 -1.9,-0.75 -2.71,-0.4 l -13.61,5.95 c -0.8,0.35 -0.89,1.09 -0.19,1.66 l 3.73,3.04 c 0.69,0.57 1.89,0.74 2.69,0.4 z" /><path
         id="rect140"
         style="display:inline;fill:#1a1a1a;stroke:#343434;stroke-width:1.49999"
         d="m 1237.3,1865.34 13.81,-5.99 c 0.83,-0.36 0.94,-1.11 0.25,-1.69 l -3.7,-3.13 c -0.69,-0.59 -1.91,-0.77 -2.73,-0.41 l -13.84,6.05 c -0.81,0.36 -0.91,1.11 -0.22,1.68 l 3.72,3.1 c 0.69,0.57 1.89,0.74 2.71,0.39 z" /><path
         id="rect141"
         style="display:inline;fill:#1a1a1a;stroke:#343434;stroke-width:2.00001"
         d="m 1300.29,1822.39 11.61,-5.11 c 1.76,-0.78 2.08,-2.41 0.71,-3.66 l -9.15,-8.35 c -1.39,-1.27 -3.93,-1.66 -5.7,-0.86 l -11.66,5.23 c -1.75,0.78 -2.03,2.42 -0.63,3.67 l 9.19,8.24 c 1.38,1.24 3.89,1.61 5.63,0.84 z" /><path
         id="rect98-9-4-6"
         style="display:inline;fill:#1a1a1a;stroke:#343434;stroke-width:2.00001"
         d="m 1244.83,1825.84 11.27,-5.07 c 1.71,-0.77 1.95,-2.38 0.53,-3.62 l -9.45,-8.28 c -1.43,-1.26 -3.97,-1.64 -5.69,-0.86 l -11.3,5.18 c -1.69,0.78 -1.89,2.4 -0.45,3.64 l 9.48,8.17 c 1.42,1.22 3.92,1.6 5.61,0.84 z" /><path
         id="rect98-9-4-2-6"
         style="display:inline;fill:#1a1a1a;stroke:#343434;stroke-width:2.00001"
         d="m 1264.42,1817.03 11.46,-5.16 c 1.74,-0.78 2.01,-2.42 0.6,-3.68 l -9.4,-8.41 c -1.43,-1.28 -3.99,-1.67 -5.73,-0.87 l -11.5,5.28 c -1.73,0.78 -1.96,2.44 -0.52,3.7 l 9.44,8.29 c 1.42,1.24 3.93,1.62 5.65,0.85 z" /><path
         id="rect141-3"
         style="display:inline;fill:#1a1a1a;stroke:#343434;stroke-width:2.00001"
         d="m 1284.35,1808.06 11.67,-5.24 c 1.76,-0.8 2.06,-2.47 0.66,-3.74 l -9.35,-8.55 c -1.42,-1.3 -4,-1.69 -5.78,-0.88 l -11.7,5.37 c -1.76,0.8 -2.02,2.48 -0.59,3.76 l 9.4,8.43 c 1.41,1.26 3.94,1.64 5.69,0.85 z" /><path
         id="rect142"
         style="display:inline;fill:#1a1a1a;stroke:#343434;stroke-width:2"
         d="m 1234.35,1763.1 11.81,-5.66 c 1.79,-0.86 2.03,-2.66 0.53,-4.02 l -10.02,-9.16 c -1.52,-1.39 -4.2,-1.8 -5.99,-0.92 l -11.85,5.79 c -1.78,0.87 -1.97,2.68 -0.44,4.05 l 10.06,9.01 c 1.5,1.35 4.14,1.76 5.9,0.91 z" /></g></g></svg>
