<?xml version="1.0" encoding="UTF-8" standalone="no"?>
<!-- Created with Inkscape (http://www.inkscape.org/) -->

<svg
   width="118.16528"
   height="87.050598"
   viewBox="0 0 118.16528 87.0506"
   version="1.1"
   id="svg1"
   xml:space="preserve"
   xmlns="http://www.w3.org/2000/svg"
   xmlns:svg="http://www.w3.org/2000/svg"><defs
     id="defs1" /><g
     id="layer4"
     transform="translate(-760.57839,-429.18117)"><path
       style="display:inline;fill:#000000;fill-opacity:1;stroke:#333333;stroke-width:0;stroke-dasharray:none;stroke-opacity:1"
       d="m 766.1277,444.17259 c 0,0 9.7474,11.91832 25.0678,28.4673 15.3202,16.54897 34.2802,37.93105 40.3233,39.1329 6.0429,1.20193 -13.8641,-45.96379 -13.8641,-45.96379 l -39.4999,-24.88007 z"
       id="path149-1" /><path
       style="display:inline;fill:#1a1a1a;fill-opacity:1;stroke:#333333;stroke-width:0;stroke-dasharray:none;stroke-opacity:1"
       d="m 761.6874,439.00755 c 0,0 30.2008,-14.25066 66.1522,-8.4289 35.9515,5.82171 43.1838,36.15136 49.1329,50.61777 5.949,14.46648 -4.407,25.6901 -11.5939,29.24208 -7.1866,3.55191 -31.4134,15.00575 -44.0967,-9.43422 -12.6837,-24.43993 -18.0044,-32.08321 -23.3008,-38.75561 -11.7589,-14.81392 -43.7312,-16.79185 -36.2937,-23.24112 z"
       id="path148" /></g></svg>
