<?xml version="1.0" encoding="UTF-8" standalone="no"?>
<!-- Created with Inkscape (http://www.inkscape.org/) -->

<svg
   width="30.262236mm"
   height="54.011787mm"
   viewBox="0 0 30.262236 54.011787"
   version="1.1"
   id="svg1"
   xmlns="http://www.w3.org/2000/svg"
   xmlns:svg="http://www.w3.org/2000/svg">
  <defs
     id="defs1" />
  <g
     id="layer1"
     transform="translate(-149.75416,-59.266667)">
    <g
       id="layer1-6"
       transform="matrix(0.26458333,0,0,0.26458333,-25.739193,-1.1248573)">
      <rect
         style="display:inline;fill:#4d4d4d;fill-opacity:1;stroke:#333333;stroke-width:0;stroke-dasharray:none;stroke-opacity:1"
         id="rect150-3"
         width="91.225006"
         height="92.071602"
         x="668.34998"
         y="321.02377" />
      <rect
         style="display:inline;fill:#666666;fill-opacity:1;stroke:#333333;stroke-width:0;stroke-dasharray:none;stroke-opacity:1"
         id="rect150-1-7"
         width="101.361"
         height="9.3218184"
         x="663.28198"
         y="406.45667" />
      <ellipse
         style="display:inline;fill:#b3b3b3;fill-opacity:1;stroke:#333333;stroke-width:0;stroke-dasharray:none;stroke-opacity:1"
         id="path149-3"
         cx="713.96289"
         cy="321.12491"
         rx="45.612587"
         ry="15.353256" />
      <ellipse
         style="display:inline;fill:#1a1a1a;fill-opacity:1;stroke:#333333;stroke-width:0;stroke-dasharray:none;stroke-opacity:1"
         id="path149-0-5"
         cx="713.96289"
         cy="321.87021"
         rx="41.627022"
         ry="13.415466" />
      <ellipse
         style="display:inline;fill:#666666;fill-opacity:1;stroke:#333333;stroke-width:0;stroke-dasharray:none;stroke-opacity:1"
         id="path149-8-8"
         cx="713.96289"
         cy="415.3313"
         rx="50.680653"
         ry="17.059174" />
      <ellipse
         style="display:inline;fill:#4d4d4d;fill-opacity:1;stroke:#333333;stroke-width:0;stroke-dasharray:none;stroke-opacity:1"
         id="path149-8-9-5"
         cx="713.96289"
         cy="406.98389"
         rx="50.680653"
         ry="17.059174" />
      <path
         id="rect150-0"
         style="display:inline;fill:#800000;fill-opacity:1;stroke:#333333;stroke-width:0;stroke-dasharray:none;stroke-opacity:1"
         d="m 678.54334,296.20522 -7.35157,0.61523 2.36914,28.36328 c 0.67936,0.8762 2.69798,2.92231 7.83008,5.10547 z" />
      <path
         id="path150"
         style="display:inline;fill:#550000;stroke:#333333;stroke-width:0"
         d="m 670.56694,245.04587 a 3.3728595,4.3214765 85.223926 0 0 -4.02347,3.61514 l -0.01,8.3e-4 4.24748,50.83653 a 1.7918315,4.3214765 85.223926 0 0 4.45459,1.42703 1.7918315,4.3214765 85.223926 0 0 4.158,-2.14662 l -4.24748,-50.83654 v 0 a 3.3728595,4.3214765 85.223926 0 0 -4.57946,-2.89634 z" />
      <ellipse
         style="display:inline;fill:#e9afaf;fill-opacity:1;stroke:#333333;stroke-width:0;stroke-dasharray:none;stroke-opacity:1"
         id="path151-2"
         cx="771.92249"
         cy="98.704445"
         rx="3.537353"
         ry="1.227245"
         transform="rotate(10.283612)" />
      <path
         id="rect150-0-6-7"
         style="display:inline;fill:#006680;fill-opacity:1;stroke:#333333;stroke-width:0;stroke-dasharray:none;stroke-opacity:1"
         d="m 717.9805,279.21484 -6.18364,56.05469 c 0.8374,0.0351 3.01223,0.0696 7.43552,-0.10938 l 6.08208,-55.13671 z" />
      <path
         id="rect151-2-8-9"
         style="display:inline;fill:#ffb380;fill-opacity:1;stroke:#333333;stroke-width:0;stroke-dasharray:none;stroke-opacity:1"
         d="m 737.07802,241.69731 -16.95706,93.45898 c 0.46787,-0.0143 2.51779,-0.0955 7.29687,-0.58399 l 16.62107,-91.61328 z" />
      <path
         id="path150-6-1"
         style="display:inline;fill:#164450;stroke:#333333;stroke-width:0"
         d="m 727.30883,228.28379 a 4.3214765,3.3728595 6.2947891 0 0 -4.64281,2.77522 l -0.0102,-9e-4 -5.59333,50.70617 a 4.3214765,1.7918315 6.2947891 0 0 4.09768,2.25583 4.3214765,1.7918315 6.2947891 0 0 4.49281,-1.30822 l 5.59333,-50.70617 v 0 a 4.3214765,3.3728595 6.2947891 0 0 -3.93801,-3.72176 z" />
      <path
         id="rect150-0-6-16"
         style="display:inline;fill:#ececec;fill-opacity:1;stroke:#333333;stroke-width:0;stroke-dasharray:none;stroke-opacity:1"
         d="m 704.00781,291.5332 -5.90234,42.75782 c 0.99839,0.14082 3.57183,0.46582 7.35161,0.69922 l 5.85933,-42.44922 z" />
      <rect
         style="display:inline;fill:#b3b3b3;fill-opacity:1;stroke:#333333;stroke-width:0;stroke-dasharray:none;stroke-opacity:1"
         id="rect151-2-9"
         width="7.0749998"
         height="6.5434937"
         x="768.3855"
         y="-109.35498"
         transform="matrix(0.98393614,0.17852079,0.17852079,-0.98393614,0,0)" />
      <ellipse
         style="display:inline;fill:#ffaaaa;fill-opacity:1;stroke:#333333;stroke-width:0;stroke-dasharray:none;stroke-opacity:1"
         id="path151-3-8"
         cx="771.92249"
         cy="102.70444"
         rx="3.537353"
         ry="1.227245"
         transform="rotate(10.283612)" />
      <path
         id="path150-6-8"
         style="display:inline;fill:#4d4d4d;stroke:#333333;stroke-width:0"
         d="m 714.72201,240.87563 a 4.3214765,3.3728595 7.8582924 0 0 -4.7168,2.64751 l -0.01,-0.001 -6.97477,50.53468 a 4.3214765,1.7918315 7.8582924 0 0 4.03461,2.36679 4.3214765,1.7918315 7.8582924 0 0 4.52684,-1.18515 l 6.97477,-50.53468 v 0 a 4.3214765,3.3728595 7.8582924 0 0 -3.83502,-3.82781 z" />
      <path
         id="rect150-0-6-4"
         style="display:inline;fill:#006680;stroke:#333333;stroke-width:0"
         d="m 691.24414,292.20118 -7.37891,0.0195 0.10742,39.0332 c 1.04814,0.41249 3.2564,1.09211 7.38282,1.8711 z" />
      <path
         id="rect150-0-6-1"
         style="display:inline;fill:#2e2e2e;fill-opacity:1;stroke:#333333;stroke-width:0;stroke-dasharray:none;stroke-opacity:1"
         d="m 694.6289,280.40234 -4.29296,52.56836 c 1.32497,0.3222 3.73705,0.81692 7.29882,1.28125 l 4.34767,-53.25 z" />
      <path
         id="path150-6-0"
         style="display:inline;fill:#164450;stroke:#333333;stroke-width:0"
         d="m 687.41254,240.56441 a 3.3728595,4.3214765 89.843585 0 0 -4.30157,3.27934 l -0.01,2e-5 0.13926,51.01348 a 1.7918315,4.3214765 89.843585 0 0 4.32518,1.78117 1.7918315,4.3214765 89.843585 0 0 4.31739,-1.80476 l -0.13926,-51.01348 v 0 a 3.3728595,4.3214765 89.843585 0 0 -4.33131,-3.25577 z" />
      <path
         id="path150-6-4"
         style="display:inline;fill:#1a1a1a;stroke:#333333;stroke-width:0"
         d="m 702.50709,229.22712 a 4.3214765,3.3728595 4.6677744 0 0 -4.56211,2.90596 l -0.01,-8.1e-4 -4.1514,50.84445 a 4.3214765,1.7918315 4.6677744 0 0 4.16008,2.13861 4.3214765,1.7918315 4.6677744 0 0 4.45386,-1.43527 l 4.15139,-50.84448 v 0 a 4.3214765,3.3728595 4.6677744 0 0 -4.04215,-3.60849 z" />
      <ellipse
         style="display:inline;fill:#b3b3b3;fill-opacity:1;stroke:#333333;stroke-width:0;stroke-dasharray:none;stroke-opacity:1"
         id="path151-3-5-3"
         cx="771.92249"
         cy="109.34652"
         rx="3.537353"
         ry="1.227245"
         transform="rotate(10.283612)" />
      <path
         id="rect150-0-6-3"
         style="display:inline;fill:#ffcc00;fill-opacity:1;stroke:#333333;stroke-width:0;stroke-dasharray:none;stroke-opacity:1"
         d="m 713.14448,287.14061 -20.69137,46.25977 c 1.09846,0.24215 3.45789,0.68815 7.57811,1.1289 l 19.8487,-44.37649 z" />
      <rect
         style="display:inline;fill:#e9afaf;fill-opacity:1;stroke:#333333;stroke-width:0;stroke-dasharray:none;stroke-opacity:1"
         id="rect151-8"
         width="7.0749998"
         height="4.1023374"
         x="768.3855"
         y="98.709145"
         transform="rotate(10.283612)" />
      <path
         id="path150-6-41"
         style="display:inline;fill:#1a1a1a;stroke:#333333;stroke-width:0"
         d="m 737.59807,241.50096 a 4.3214765,3.3728595 24.097989 0 0 -5.26898,1.22283 l -0.009,-0.005 -20.8288,46.56774 a 4.3214765,1.7918315 24.097989 0 0 3.21172,3.40069 4.3214765,1.7918315 24.097989 0 0 4.67766,0.12808 l 20.82883,-46.56776 v 0 a 4.3214765,3.3728595 24.097989 0 0 -2.61157,-4.74763 z" />
      <path
         id="rect151-2-8-6-7"
         style="display:inline;fill:#0f3820;fill-opacity:1;stroke:#333333;stroke-width:0;stroke-dasharray:none;stroke-opacity:1"
         d="m 752.2715,241.20703 -22.44729,93.08399 c 0.29092,-0.0436 5.58958,-0.84166 7.59177,-1.30275 l 21.73442,-90.12303 z" />
      <rect
         style="display:inline;fill:#ececec;fill-opacity:1;stroke:#333333;stroke-width:0;stroke-dasharray:none;stroke-opacity:1"
         id="rect151-2-2-8"
         width="7.0749998"
         height="2.0334506"
         x="787.85474"
         y="-58.622765"
         transform="matrix(0.9721324,0.23443249,0.23443249,-0.9721324,0,0)" />
      <ellipse
         style="display:inline;fill:#ececec;fill-opacity:1;stroke:#333333;stroke-width:0;stroke-dasharray:none;stroke-opacity:1"
         id="path151-3-5-8-2"
         cx="791.39172"
         cy="58.551659"
         rx="3.537353"
         ry="1.227245"
         transform="rotate(13.558173)" />
      <ellipse
         style="display:inline;fill:#f2f2f2;fill-opacity:1;stroke:#333333;stroke-width:0;stroke-dasharray:none;stroke-opacity:1"
         id="path151-3-3-7"
         cx="791.39172"
         cy="56.482296"
         rx="3.537353"
         ry="1.227245"
         transform="rotate(13.558173)" />
      <path
         id="rect151-2-8-6-0"
         style="display:inline;fill:#16502d;fill-opacity:1;stroke:#333333;stroke-width:0;stroke-dasharray:none;stroke-opacity:1"
         d="m 770.5293,256.08399 -37.62308,77.71482 c 0.40825,-0.086 6.52966,-1.37323 8.78718,-1.90818 l 35.205,-72.72266 z" />
      <rect
         style="display:inline;fill:#ececec;fill-opacity:1;stroke:#333333;stroke-width:0;stroke-dasharray:none;stroke-opacity:1"
         id="rect151-2-2-89"
         width="7.0749998"
         height="2.0334506"
         x="805.11859"
         y="104.76164"
         transform="matrix(0.90007284,0.43573946,0.43573946,-0.90007284,0,0)" />
      <ellipse
         style="display:inline;fill:#ececec;fill-opacity:1;stroke:#333333;stroke-width:0;stroke-dasharray:none;stroke-opacity:1"
         id="path151-3-5-8-28"
         cx="808.6557"
         cy="-104.83276"
         rx="3.537353"
         ry="1.227245"
         transform="rotate(25.832356)" />
      <ellipse
         style="display:inline;fill:#f2f2f2;fill-opacity:1;stroke:#333333;stroke-width:0;stroke-dasharray:none;stroke-opacity:1"
         id="path151-3-3-2"
         cx="808.6557"
         cy="-106.90212"
         rx="3.537353"
         ry="1.227245"
         transform="rotate(25.832356)" />
    </g>
  </g>
</svg>
