<?xml version="1.0" encoding="UTF-8" standalone="no"?>
<!-- Created with Inkscape (http://www.inkscape.org/) -->

<svg
   width="64.037445"
   height="72.520111"
   viewBox="0 0 64.037444 72.520113"
   version="1.1"
   id="svg1"
   xml:space="preserve"
   xmlns="http://www.w3.org/2000/svg"
   xmlns:svg="http://www.w3.org/2000/svg"><defs
     id="defs1" /><g
     id="layer13"
     transform="translate(58.018044,-103.42773)"><path
       id="rect1"
       style="display:inline;fill:#333333;stroke:#000000;stroke-width:0"
       d="m -57.96417,166.22335 c -0.51823,5.47313 3.05031,9.86137 8.00718,9.72122 l 47.50156,-1.34431 c 4.92131,-0.13888 8.6934,-4.71334 8.46498,-10.1439 z" /><path
       id="rect1-4"
       style="display:inline;fill:#0c0a13;stroke:#000000;stroke-width:0"
       d="m -44.91224,104.44324 c -3.78685,0.10538 -6.99885,1.78717 -7.20383,3.8027 l -0.62178,6.10249 -0.47865,0.0145 c -0.49583,0.014 -0.91723,0.24185 -0.94586,0.51016 l -0.53934,5.00317 c -0.0275,0.25002 0.27254,0.44714 0.69508,0.47809 -0.43171,0.057 -0.77638,0.27317 -0.80387,0.52434 l -0.56796,5.27148 c -0.0321,0.298 0.36185,0.52513 0.88286,0.50953 l 0.505,-0.0149 -4.00671,39.34195 c -0.33321,3.26708 3.38492,5.82447 8.33862,5.6638 l 47.47125,-1.54031 c 4.9182,-0.15935 8.53672,-2.94197 8.12448,-6.17207 l -5.17814,-40.58464 0.71683,-0.0217 c 0.51416,-0.0146 0.89662,-0.26074 0.85768,-0.55036 l -1.01456,-7.5406 c -0.0366,-0.27124 -0.4649,-0.47757 -0.96074,-0.46356 l -0.69049,0.0201 -1.01799,-7.97698 c -0.25421,-1.99595 -3.48569,-3.49235 -7.25077,-3.38751 z" /></g></svg>
