<?xml version="1.0" encoding="UTF-8" standalone="no"?>
<!-- Created with Inkscape (http://www.inkscape.org/) -->

<svg
   width="759.92847"
   height="560.30438"
   viewBox="0 0 759.92845 560.3044"
   version="1.1"
   id="svg1"
   xml:space="preserve"
   xmlns="http://www.w3.org/2000/svg"
   xmlns:svg="http://www.w3.org/2000/svg"><defs
     id="defs1" /><g
     id="layer5"
     style="display:inline"
     transform="translate(-516.38709,274.30937)"><path
       id="rect3"
       style="display:inline;fill:#1a1a1a;stroke:#000000;stroke-width:0"
       d="m 777.5602,131.72488 179.5527,53.68655 c 8.4925,2.53928 12.6132,12.15859 9.5943,20.49267 l -60.5273,51.94363 c -8.3611,7.49059 -21.4325,8.94536 -29.7712,5.93912 L 704.544,201.82658 c -8.3387,-3.00623 -15.0031,-15.67317 -9.5943,-20.49267 l 62.1178,-40.01474 c 3.0189,-8.33409 12.0002,-12.13356 20.4927,-9.59429 z" /><path
       id="rect2"
       style="display:inline;fill:#000000;fill-opacity:1;stroke:#000000;stroke-width:0"
       d="m 557.6516,-274.24947 710.5525,99.34849 c 4.3893,0.61371 8.8806,3.65638 8,8 l -90.1561,444.68009 c -0.8807,4.34363 -3.7686,9.31835 -8,8 L 524.4176,82.13236 c -4.2314,-1.31835 -8.4307,-3.58898 -8,-8 l 33.234,-340.38183 c 0.4307,-4.41103 3.6107,-8.61371 8,-8 z" /></g></svg>
